<?xml version="1.0" encoding="UTF-8" standalone="no"?>
<svg
   xmlns:dc="http://purl.org/dc/elements/1.1/"
   xmlns:cc="http://creativecommons.org/ns#"
   xmlns:rdf="http://www.w3.org/1999/02/22-rdf-syntax-ns#"
   xmlns:svg="http://www.w3.org/2000/svg"
   xmlns="http://www.w3.org/2000/svg"
   xmlns:sodipodi="http://sodipodi.sourceforge.net/DTD/sodipodi-0.dtd"
   xmlns:inkscape="http://www.inkscape.org/namespaces/inkscape"
   sodipodi:docname="Hackberry.svg"
   inkscape:version="1.0 (4035a4fb49, 2020-05-01)"
   id="svg8"
   version="1.1"
   viewBox="0 0 20.000059 24.612356"
   height="24.612356mm"
   width="20.000059mm">
  <defs
     id="defs2" />
  <sodipodi:namedview
     fit-margin-bottom="0"
     fit-margin-right="0"
     fit-margin-left="0"
     fit-margin-top="0"
     inkscape:window-maximized="1"
     inkscape:window-y="-8"
     inkscape:window-x="-8"
     inkscape:window-height="705"
     inkscape:window-width="1366"
     showgrid="false"
     inkscape:document-rotation="0"
     inkscape:current-layer="layer1"
     inkscape:document-units="mm"
     inkscape:cy="46.511541"
     inkscape:cx="37.795388"
     inkscape:zoom="5.5362605"
     inkscape:pageshadow="2"
     inkscape:pageopacity="0.0"
     borderopacity="1.0"
     bordercolor="#666666"
     pagecolor="#ffffff"
     id="base" />
  <metadata
     id="metadata5">
    <rdf:RDF>
      <cc:Work
         rdf:about="">
        <dc:format>image/svg+xml</dc:format>
        <dc:type
           rdf:resource="http://purl.org/dc/dcmitype/StillImage" />
        <dc:title></dc:title>
      </cc:Work>
    </rdf:RDF>
  </metadata>
  <g
     transform="translate(-8.5771741,-18.135617)"
     id="layer1"
     inkscape:groupmode="layer"
     inkscape:label="Layer 1">
    <path
       d="m 14.500279,42.702362 c -0.941517,-0.179882 -1.678663,-0.729789 -2.096704,-1.564129 -0.210188,-0.419501 -0.299611,-0.874185 -0.278066,-1.413876 0.02884,-0.722317 0.279104,-1.320936 0.769658,-1.840951 0.502518,-0.532694 1.062936,-0.797373 1.906213,-0.900282 l 0.132423,-0.01616 v -0.506768 -0.506768 l 0.444468,-0.446366 0.444467,-0.446366 -0.03975,-0.150619 c -0.257683,-0.976262 0.0302,-2.044215 0.74376,-2.759186 0.430631,-0.431476 0.994115,-0.71939 1.592135,-0.813506 l 0.216,-0.034 0.007,-6.568567 0.007,-6.568568 h 0.223028 0.223029 l 0.007,6.567541 0.007,6.56754 0.271759,0.04808 c 0.706427,0.124971 1.359432,0.526214 1.797739,1.104634 0.191762,0.253062 0.399523,0.688061 0.486004,1.017569 0.06281,0.23933 0.07337,0.337971 0.0746,0.696965 0.0012,0.346031 -0.0097,0.463161 -0.06284,0.678892 l -0.06427,0.26071 0.421167,0.424343 0.421168,0.424342 v 0.50157 0.501571 l 0.327574,0.03169 c 0.770789,0.07457 1.361176,0.353045 1.868241,0.881217 0.378839,0.394606 0.62346,0.862811 0.737408,1.411391 0.07988,0.384584 0.05974,0.99681 -0.04448,1.352113 -0.301391,1.027498 -1.067842,1.767665 -2.099589,2.027587 -0.204753,0.05158 -0.319601,0.06159 -0.691585,0.06026 -0.386945,-0.0014 -0.481198,-0.011 -0.711224,-0.07265 -1.122159,-0.300701 -1.93635,-1.200415 -2.119212,-2.341814 -0.0493,-0.307718 -0.02157,-0.894427 0.05571,-1.178835 0.261548,-0.962505 0.968258,-1.711132 1.88904,-2.001083 l 0.285219,-0.08981 5.5e-4,-0.431643 5.5e-4,-0.431643 -0.28232,-0.283283 -0.28232,-0.283284 -0.133417,0.199171 c -0.277372,0.414079 -0.780816,0.828844 -1.236124,1.018388 -0.436462,0.1817 -0.590799,0.209507 -1.160345,0.209059 -0.481499,-4.22e-4 -0.532235,-0.0054 -0.763886,-0.07635 -0.688607,-0.210743 -1.251006,-0.616811 -1.613635,-1.165089 l -0.14474,-0.218839 -0.314633,0.313575 -0.314634,0.313575 0.0076,0.403016 0.0076,0.403015 0.168137,0.034 c 1.108036,0.224052 1.986673,1.110245 2.221453,2.240557 0.07976,0.383996 0.05973,0.996507 -0.04422,1.352113 -0.294387,1.007079 -1.055027,1.753975 -2.049329,2.012299 -0.332579,0.0864 -0.912275,0.111949 -1.217439,0.05364 z m 1.029368,-0.08993 c 0.845614,-0.160005 1.582606,-0.721946 1.969984,-1.502074 0.556667,-1.121052 0.314822,-2.447244 -0.602107,-3.301754 -0.504121,-0.469803 -1.094517,-0.714551 -1.796449,-0.744715 -0.760576,-0.03269 -1.461723,0.225756 -2.015473,0.742897 -1.189411,1.110779 -1.20624,2.941044 -0.0375,4.07831 0.647399,0.629966 1.568831,0.900035 2.481546,0.727336 z m -1.920078,-3.613085 c -0.139976,-0.04963 -0.229333,-0.127718 -0.290332,-0.253728 -0.09759,-0.201592 -0.07006,-0.403614 0.07605,-0.558035 0.109478,-0.11571 0.207556,-0.157812 0.367617,-0.157812 0.576446,0 0.690933,0.7817 0.142203,0.970947 -0.112744,0.03888 -0.182914,0.03856 -0.295535,-0.0014 z m 0.346546,-0.0904 c 0.118473,-0.06126 0.217413,-0.194394 0.238873,-0.321417 0.0232,-0.137336 -0.06677,-0.341153 -0.190194,-0.430858 -0.110214,-0.0801 -0.373808,-0.08 -0.483786,2.1e-4 -0.119091,0.08683 -0.210522,0.282006 -0.194007,0.414135 0.03575,0.286069 0.376003,0.468847 0.629114,0.337958 z m 8.84985,3.703483 c 1.240608,-0.234744 2.174751,-1.301648 2.265104,-2.587024 0.03956,-0.562777 -0.127127,-1.192073 -0.447765,-1.69047 -0.184548,-0.28686 -0.614261,-0.703399 -0.9013,-0.873671 -0.929326,-0.551276 -2.071207,-0.537934 -2.963752,0.03462 -1.339201,0.859089 -1.701801,2.648032 -0.801435,3.954003 0.63856,0.926228 1.73457,1.373431 2.849148,1.162535 z m -1.920078,-3.614591 c -0.149424,-0.06099 -0.233131,-0.134059 -0.291356,-0.254337 -0.09656,-0.199478 -0.06848,-0.402088 0.07707,-0.55592 0.10948,-0.11571 0.207558,-0.157812 0.367619,-0.157812 0.410265,0 0.637048,0.433803 0.407846,0.780152 -0.1132,0.171056 -0.381977,0.26106 -0.561179,0.187917 z m 0.376646,-0.110802 c 0.212125,-0.144371 0.270053,-0.340966 0.161757,-0.548971 -0.09402,-0.180594 -0.18764,-0.238601 -0.38507,-0.238601 -0.199922,0 -0.292716,0.05882 -0.385914,0.244608 -0.05114,0.101951 -0.06122,0.154379 -0.04648,0.241669 0.05085,0.300966 0.412211,0.467012 0.655702,0.301295 z m 0.678851,-1.878627 0.129344,-0.01773 v -0.491417 -0.491416 l -0.403309,-0.402591 -0.403311,-0.402592 -0.06789,0.152044 -0.06788,0.152044 0.303922,0.309354 0.303923,0.309354 v 0.450339 c 0,0.36118 0.0075,0.450339 0.03793,0.450339 0.02086,0 0.09613,-0.008 0.167271,-0.01773 z M 15.351983,36.559589 V 36.12092 l 0.320618,-0.321455 0.320617,-0.321456 -0.06274,-0.159814 c -0.0345,-0.0879 -0.06954,-0.15984 -0.07785,-0.159869 -0.0083,-2.9e-5 -0.205899,0.192174 -0.439088,0.42712 l -0.423981,0.427177 v 0.474232 c 0,0.260828 0.0084,0.482596 0.01858,0.492817 0.01022,0.01022 0.09177,0.01859 0.181212,0.01859 h 0.162625 z m 3.805023,0.368312 c 1.023685,-0.212093 1.855567,-1.01089 2.13789,-2.052865 0.05348,-0.197364 0.063,-0.302069 0.063,-0.692517 0,-0.392118 -0.0094,-0.494967 -0.06393,-0.696966 -0.129202,-0.478923 -0.355934,-0.876043 -0.713532,-1.249745 -0.93796,-0.980203 -2.432298,-1.142166 -3.562155,-0.386082 -0.563543,0.377115 -0.992888,0.977679 -1.169459,1.635827 -0.08534,0.318086 -0.09257,1.048083 -0.01341,1.352113 0.183795,0.705808 0.589284,1.282234 1.178432,1.675203 0.642569,0.428603 1.384332,0.572249 2.143155,0.415032 z m -2.006852,-3.62141 c -0.301762,-0.135252 -0.398604,-0.506517 -0.201621,-0.772952 0.201553,-0.272614 0.658268,-0.237721 0.827403,0.06322 0.06779,0.120622 0.07672,0.352461 0.01791,0.465034 -0.125039,0.239345 -0.412141,0.348488 -0.643696,0.244702 z m 0.377198,-0.07881 c 0.316427,-0.159855 0.339454,-0.539624 0.04591,-0.757129 -0.05683,-0.04211 -0.120193,-0.05832 -0.227954,-0.05832 -0.4867,0 -0.599552,0.683747 -0.139393,0.844547 0.127483,0.04455 0.186175,0.03923 0.321442,-0.0291 z m 1.225821,-8.45419 v -6.537535 h -0.181211 -0.181211 v 6.537535 6.537535 h 0.181211 0.181211 z m -7.795066,12.250193 c -0.208123,-0.03482 -0.585552,-0.158882 -0.777608,-0.255614 -0.7711222,-0.388389 -1.2850851,-1.033368 -1.52648,-1.915601 -0.083025,-0.303437 -0.083025,-1.036454 0,-1.339891 0.2980355,-1.089239 1.0385303,-1.840256 2.093101,-2.122842 0.325776,-0.0873 0.940051,-0.101109 1.287308,-0.02895 0.87468,0.181765 1.607025,0.74264 2.00616,1.536438 l 0.08967,0.178332 0.346016,-0.345185 0.346017,-0.345186 v -0.491279 -0.491278 l -0.285099,-0.01964 c -0.756874,-0.05213 -1.336942,-0.295377 -1.850908,-0.776168 -0.413492,-0.386801 -0.690447,-0.864602 -0.836114,-1.442457 -0.07771,-0.308269 -0.07171,-1.069609 0.0108,-1.370942 0.288992,-1.055361 1.053928,-1.811782 2.112886,-2.089364 0.351463,-0.09213 0.997641,-0.09346 1.358803,-0.0028 0.46069,0.11564 0.875235,0.330193 1.240632,0.642108 l 0.147986,0.126325 0.249188,-0.248034 0.249189,-0.248034 0.0071,-3.903683 0.0071,-3.903683 0.229999,-0.0081 0.229998,-0.0081 v 4.036138 4.036138 l -0.319684,0.321023 -0.319685,0.321023 0.165665,0.334543 c 0.251148,0.507168 0.292815,0.696774 0.291006,1.324234 -0.0014,0.480642 -0.0067,0.532646 -0.07776,0.763885 -0.162238,0.527798 -0.398022,0.921303 -0.764509,1.275905 -0.342522,0.331413 -0.770887,0.586693 -1.184414,0.70584 l -0.160302,0.04619 v 0.645932 0.645932 l -0.514448,0.516021 -0.514446,0.516023 0.02915,0.223029 c 0.01604,0.122666 0.02108,0.346246 0.01122,0.496846 -0.08527,1.301868 -1.017641,2.379056 -2.287213,2.642465 -0.268723,0.05575 -0.822951,0.06717 -1.090259,0.02246 z m 1.089852,-0.0956 c 0.792489,-0.164824 1.509436,-0.710422 1.89543,-1.442424 0.238045,-0.451431 0.338436,-0.911553 0.313214,-1.435569 -0.03625,-0.753178 -0.32578,-1.382709 -0.875038,-1.902628 -0.534978,-0.506401 -1.164298,-0.758533 -1.90471,-0.763109 -0.586334,-0.0036 -1.086838,0.144599 -1.5669166,0.464032 -0.4373026,0.290971 -0.7565151,0.661644 -0.9848022,1.143561 -0.2091544,0.44153 -0.2467202,0.622809 -0.2467202,1.190577 0,0.416005 0.00902,0.52073 0.061196,0.710904 0.075646,0.275692 0.2736596,0.692187 0.4397333,0.924918 0.4346334,0.609086 1.1280907,1.030134 1.8956317,1.150978 0.22423,0.03531 0.702401,0.01504 0.972982,-0.04124 z M 10.011128,33.289877 C 9.7983448,33.184549 9.6833798,32.938949 9.7471148,32.725861 c 0.050176,-0.167756 0.1228235,-0.258209 0.2611692,-0.325181 0.201592,-0.09759 0.403614,-0.07006 0.558035,0.07605 0.115709,0.109478 0.157813,0.207557 0.157813,0.367618 0,0.379247 -0.37435,0.613166 -0.713004,0.445532 z m 0.40577,-0.0622 c 0.179084,-0.09151 0.237538,-0.185839 0.237538,-0.383331 0,-0.175676 -0.0457,-0.265452 -0.189975,-0.373166 -0.106385,-0.07943 -0.349186,-0.07976 -0.456085,-6.5e-4 -0.2503362,0.185312 -0.2758342,0.498614 -0.057198,0.702808 0.133331,0.124524 0.292091,0.143041 0.46572,0.05432 z m 4.82357,-1.277332 v -0.629751 l -0.167271,0.02694 -0.167272,0.02694 v 0.532457 0.532457 l -0.372258,0.376722 -0.372257,0.376723 0.05505,0.177517 0.05505,0.177518 0.484477,-0.483884 0.484478,-0.483883 z m 0.08853,-0.718887 c 0.501417,-0.132361 0.917237,-0.366845 1.287085,-0.725798 0.652086,-0.632875 0.960012,-1.551962 0.814286,-2.43045 -0.181681,-1.095239 -0.9342,-1.9473 -2.008686,-2.274388 -0.233313,-0.07102 -0.286097,-0.07641 -0.752723,-0.07683 -0.585312,-5.5e-4 -0.770188,0.03761 -1.211164,0.249847 -0.489284,0.235489 -0.852847,0.55209 -1.147381,0.999173 -0.55418,0.841205 -0.610212,1.911738 -0.147005,2.808592 0.399135,0.772799 1.138128,1.327387 1.981384,1.486956 0.302274,0.0572 0.897642,0.03855 1.184204,-0.0371 z m -2.095772,-3.603854 c -0.162951,-0.06498 -0.306679,-0.280833 -0.306679,-0.460582 0,-0.39165 0.450512,-0.635905 0.775819,-0.420626 0.330832,0.218934 0.290173,0.719614 -0.07099,0.874144 -0.103183,0.04415 -0.296545,0.04758 -0.398151,0.0071 z m 0.44115,-0.09884 c 0.08791,-0.06401 0.200043,-0.27072 0.200043,-0.368758 0,-0.115232 -0.108847,-0.303364 -0.212627,-0.367503 -0.07908,-0.04887 -0.128053,-0.05781 -0.263179,-0.04804 -0.142836,0.01034 -0.179681,0.02525 -0.263825,0.106804 -0.301017,0.291757 -0.08522,0.776772 0.330499,0.742798 0.07398,-0.0061 0.168065,-0.03543 0.209089,-0.0653 z m 3.963656,-5.34058 v -3.95223 h -0.167271 -0.167272 v 3.881598 3.881599 l -0.26878,0.269792 -0.26878,0.269793 0.106303,0.129729 0.106302,0.129729 0.329749,-0.32889 0.329749,-0.328891 z m 7.443591,14.812977 c -0.593087,-0.131223 -1.057959,-0.39092 -1.46929,-0.820804 -0.251658,-0.263009 -0.383568,-0.45328 -0.538692,-0.777029 -0.213468,-0.445507 -0.316007,-1.067592 -0.254074,-1.541411 l 0.02915,-0.223029 -0.514004,-0.515754 -0.514003,-0.515754 -0.0074,-0.649701 -0.0074,-0.6497 -0.203754,-0.0686 C 20.834338,30.98089 20.240465,30.450085 19.89637,29.714772 19.50329,28.874779 19.555236,27.818894 20.028168,27.035811 l 0.09851,-0.163116 -0.324332,-0.325178 -0.324331,-0.32518 V 22.186199 18.15006 l 0.229999,0.0081 0.229998,0.0081 0.0071,3.903684 0.0071,3.903683 0.246734,0.245591 0.246733,0.245591 0.246593,-0.197849 c 0.778398,-0.624535 1.806043,-0.803667 2.758513,-0.480845 0.411367,0.139425 0.718064,0.325526 1.037684,0.629655 0.445313,0.423726 0.721347,0.91948 0.842219,1.512603 0.284174,1.394462 -0.488146,2.790302 -1.811001,3.273085 -0.30414,0.110997 -0.541538,0.158977 -0.901853,0.182272 l -0.296132,0.01914 v 0.491158 0.491157 l 0.344715,0.343889 0.344717,0.343888 0.127446,-0.239573 c 0.408452,-0.76781 1.113187,-1.294347 1.970983,-1.472603 0.347256,-0.07216 0.96153,-0.05835 1.287307,0.02895 1.461266,0.391567 2.367811,1.778661 2.128157,3.256271 -0.180714,1.11421 -0.959296,1.986826 -2.063351,2.312551 -0.344936,0.101765 -1.018606,0.122564 -1.379991,0.04261 z m 1.288711,-0.09784 c 0.632612,-0.160476 1.220408,-0.561086 1.596442,-1.088051 0.162864,-0.228234 0.360916,-0.647052 0.437848,-0.925913 0.05049,-0.182997 0.06072,-0.296812 0.06233,-0.6929 0.0023,-0.553729 -0.0422,-0.768304 -0.250337,-1.208581 -0.223614,-0.473015 -0.55037,-0.851883 -0.982945,-1.139709 -1.131987,-0.753198 -2.624973,-0.590682 -3.561134,0.38764 -0.505904,0.528687 -0.75054,1.093935 -0.785211,1.814278 -0.04078,0.847303 0.259872,1.586001 0.888444,2.182873 0.436311,0.414308 0.941164,0.646602 1.626457,0.748374 0.194987,0.02896 0.710039,-0.01254 0.968107,-0.07801 z M 24.2592,33.30624 c -0.198295,-0.0968 -0.292472,-0.244666 -0.292621,-0.459446 -2.11e-4,-0.285568 0.211345,-0.504264 0.487772,-0.504264 0.48018,0 0.673806,0.645406 0.275502,0.918328 -0.120873,0.08282 -0.348908,0.104812 -0.470653,0.04538 z m 0.377199,-0.07856 c 0.316427,-0.159855 0.339454,-0.539624 0.0459,-0.757129 -0.05683,-0.04211 -0.120193,-0.05832 -0.227954,-0.05832 -0.167786,0 -0.26448,0.05466 -0.369392,0.208805 -0.08516,0.125124 -0.08506,0.320854 2.11e-4,0.449188 0.06561,0.09873 0.269247,0.220183 0.369168,0.220183 0.03184,0 0.113758,-0.02822 0.182049,-0.06273 z m -1.706204,0.126904 0.05294,-0.1701 -0.372568,-0.3718 -0.372567,-0.3718 v -0.534601 -0.5346 l -0.118484,-0.01843 c -0.06517,-0.01013 -0.140439,-0.02463 -0.167272,-0.03221 -0.04544,-0.01283 -0.04878,0.02983 -0.04878,0.622045 v 0.635826 l 0.479596,0.480184 c 0.263777,0.264101 0.482882,0.476898 0.486898,0.472881 0.004,-0.004 0.03112,-0.08385 0.06024,-0.177401 z m 0.30568,-2.138895 c 1.7169,-0.473857 2.577379,-2.379085 1.786201,-3.954919 -0.151262,-0.301277 -0.24445,-0.43375 -0.478306,-0.67994 -0.552373,-0.581505 -1.237537,-0.874959 -2.043877,-0.875386 -0.67793,-3.17e-4 -1.267899,0.217191 -1.819838,0.671068 -0.121199,0.09966 -0.246437,0.218846 -0.278305,0.264846 -0.03187,0.046 -0.08652,0.115512 -0.121445,0.154471 -0.07668,0.08554 -0.130969,0.174355 -0.263414,0.43098 -0.863848,1.673796 0.135722,3.68787 2.007395,4.044783 0.31325,0.05973 0.88883,0.03317 1.211589,-0.0559 z m -2.211179,-3.622884 c -0.16633,-0.102107 -0.245628,-0.26115 -0.231005,-0.463316 0.03492,-0.482707 0.634817,-0.639848 0.909928,-0.23835 0.142886,0.208529 0.08822,0.512703 -0.1208,0.672129 -0.149752,0.114221 -0.398712,0.127397 -0.558123,0.02953 z m 0.458883,-0.04453 c 0.292,-0.148967 0.305123,-0.581643 0.02286,-0.753739 -0.20539,-0.125228 -0.49902,-0.04348 -0.607482,0.169121 -0.194994,0.382219 0.2024,0.779612 0.584619,0.584618 z M 20.301012,26.66671 20.405879,26.538733 20.137098,26.26894 19.868318,25.999147 V 22.11755 18.235952 h -0.167272 -0.167271 v 3.951375 3.951375 l 0.327138,0.327993 c 0.179925,0.180395 0.328959,0.327993 0.331185,0.327993 0.0022,0 0.05124,-0.05759 0.108914,-0.127978 z"
       style="fill:none;stroke:#000000;stroke-width:0.0278786"
       id="path104" />
  </g>
</svg>
