  0
SECTION
  2
HEADER
  9
$ACADVER
  1
AC1014
  9
$HANDSEED
  5
FFFF
  9
$MEASUREMENT
 70
     1
  0
ENDSEC
  0
SECTION
  2
TABLES
  0
TABLE
  2
VPORT
  5
8
330
0
100
AcDbSymbolTable
 70
     4
  0
VPORT
  5
2E
330
8
100
AcDbSymbolTableRecord
100
AcDbViewportTableRecord
  2
*ACTIVE
 70
     0
 10
0.0
 20
0.0
 11
1.0
 21
1.0
 12
210.0
 22
148.5
 13
0.0
 23
0.0
 14
10.0
 24
10.0
 15
10.0
 25
10.0
 16
0.0
 26
0.0
 36
1.0
 17
0.0
 27
0.0
 37
0.0
 40
341.0
 41
1.24
 42
50.0
 43
0.0
 44
0.0
 50
0.0
 51
0.0
 71
     0
 72
   100
 73
     1
 74
     3
 75
     0
 76
     0
 77
     0
 78
     0
  0
ENDTAB
  0
TABLE
  2
LTYPE
  5
5
330
0
100
AcDbSymbolTable
 70
     1
  0
LTYPE
  5
14
330
5
100
AcDbSymbolTableRecord
100
AcDbLinetypeTableRecord
  2
BYBLOCK
 70
     0
  3

 72
    65
 73
     0
 40
0.0
  0
LTYPE
  5
15
330
5
100
AcDbSymbolTableRecord
100
AcDbLinetypeTableRecord
  2
BYLAYER
 70
     0
  3

 72
    65
 73
     0
 40
0.0
  0
LTYPE
  5
16
330
5
100
AcDbSymbolTableRecord
100
AcDbLinetypeTableRecord
  2
CONTINUOUS
 70
     0
  3
Solid line
 72
    65
 73
     0
 40
0.0
  0
ENDTAB
  0
TABLE
  2
LAYER
  5
2
100
AcDbSymbolTable
 70
2
  0
LAYER
  5
50
100
AcDbSymbolTableRecord
100
AcDbLayerTableRecord
  2
0
 70
0
  6
CONTINUOUS
  0
LAYER
  5
51
100
AcDbSymbolTableRecord
100
AcDbLayerTableRecord
  2
Layer_1
 70
0
  6
CONTINUOUS
  0
ENDTAB
  0
TABLE
  2
STYLE
  5
3
330
0
100
AcDbSymbolTable
 70
     1
  0
STYLE
  5
11
330
3
100
AcDbSymbolTableRecord
100
AcDbTextStyleTableRecord
  2
STANDARD
 70
     0
 40
0.0
 41
1.0
 50
0.0
 71
     0
 42
2.5
  3
txt
  4

  0
ENDTAB
  0
TABLE
  2
VIEW
  5
6
330
0
100
AcDbSymbolTable
 70
     0
  0
ENDTAB
  0
TABLE
  2
UCS
  5
7
330
0
100
AcDbSymbolTable
 70
     0
  0
ENDTAB
  0
TABLE
  2
APPID
  5
9
330
0
100
AcDbSymbolTable
 70
     2
  0
APPID
  5
12
330
9
100
AcDbSymbolTableRecord
100
AcDbRegAppTableRecord
  2
ACAD
 70
     0
  0
ENDTAB
  0
TABLE
  2
DIMSTYLE
  5
A
330
0
100
AcDbSymbolTable
 70
     1
  0
DIMSTYLE
105
27
330
A
100
AcDbSymbolTableRecord
100
AcDbDimStyleTableRecord
  2
ISO-25
 70
     0
  3

  4

  5

  6

  7

 40
1.0
 41
2.5
 42
0.625
 43
3.75
 44
1.25
 45
0.0
 46
0.0
 47
0.0
 48
0.0
140
2.5
141
2.5
142
0.0
143
0.03937007874016
144
1.0
145
0.0
146
1.0
147
0.625
 71
     0
 72
     0
 73
     0
 74
     0
 75
     0
 76
     0
 77
     1
 78
     8
170
     0
171
     3
172
     1
173
     0
174
     0
175
     0
176
     0
177
     0
178
     0
270
     2
271
     2
272
     2
273
     2
274
     3
340
11
275
     0
280
     0
281
     0
282
     0
283
     0
284
     8
285
     0
286
     0
287
     3
288
     0
  0
ENDTAB
  0
TABLE
  2
BLOCK_RECORD
  5
1
330
0
100
AcDbSymbolTable
 70
     1
  0
BLOCK_RECORD
  5
1F
330
1
100
AcDbSymbolTableRecord
100
AcDbBlockTableRecord
  2
*MODEL_SPACE
  0
BLOCK_RECORD
  5
1B
330
1
100
AcDbSymbolTableRecord
100
AcDbBlockTableRecord
  2
*PAPER_SPACE
  0
ENDTAB
  0
ENDSEC
  0
SECTION
  2
BLOCKS
  0
BLOCK
  5
20
330
1F
100
AcDbEntity
  8
0
100
AcDbBlockBegin
  2
*MODEL_SPACE
 70
     0
 10
0.0
 20
0.0
 30
0.0
  3
*MODEL_SPACE
  1

  0
ENDBLK
  5
21
330
1F
100
AcDbEntity
  8
0
100
AcDbBlockEnd
  0
BLOCK
  5
1C
330
1B
100
AcDbEntity
 67
     1
  8
0
100
AcDbBlockBegin
  2
*PAPER_SPACE
  1

  0
ENDBLK
  5
1D
330
1B
100
AcDbEntity
 67
     1
  8
0
100
AcDbBlockEnd
  0
ENDSEC
  0
SECTION
  2
ENTITIES
  0
SPLINE
  5
100
100
AcDbEntity
  8
Layer_1
 62
7
100
AcDbSpline
 70
8
 71
3
 72
8
 73
4
 74
0
 40
0
 40
0
 40
0
 40
0
 40
1
 40
1
 40
1
 40
1
 10
14.500279
 20
254.297638
 30
0.0
 10
13.558762
 20
254.477520
 30
0.0
 10
12.821616
 20
255.027427
 30
0.0
 10
12.403575
 20
255.861767
 30
0.0
  0
SPLINE
  5
101
100
AcDbEntity
  8
Layer_1
 62
7
100
AcDbSpline
 70
8
 71
3
 72
8
 73
4
 74
0
 40
0
 40
0
 40
0
 40
0
 40
1
 40
1
 40
1
 40
1
 10
12.403575
 20
255.861767
 30
0.0
 10
12.193387
 20
256.281268
 30
0.0
 10
12.103964
 20
256.735952
 30
0.0
 10
12.125509
 20
257.275643
 30
0.0
  0
SPLINE
  5
102
100
AcDbEntity
  8
Layer_1
 62
7
100
AcDbSpline
 70
8
 71
3
 72
8
 73
4
 74
0
 40
0
 40
0
 40
0
 40
0
 40
1
 40
1
 40
1
 40
1
 10
12.125509
 20
257.275643
 30
0.0
 10
12.154349
 20
257.997960
 30
0.0
 10
12.404613
 20
258.596579
 30
0.0
 10
12.895167
 20
259.116594
 30
0.0
  0
SPLINE
  5
103
100
AcDbEntity
  8
Layer_1
 62
7
100
AcDbSpline
 70
8
 71
3
 72
8
 73
4
 74
0
 40
0
 40
0
 40
0
 40
0
 40
1
 40
1
 40
1
 40
1
 10
12.895167
 20
259.116594
 30
0.0
 10
13.397685
 20
259.649288
 30
0.0
 10
13.958103
 20
259.913967
 30
0.0
 10
14.801380
 20
260.016876
 30
0.0
  0
LINE
  5
104
100
AcDbEntity
  8
Layer_1
 62
7
100
AcDbLine
 10
14.801380
 20
260.016876
 30
0.0
 11
14.933803
 21
260.033036
 31
0.0
  0
LINE
  5
105
100
AcDbEntity
  8
Layer_1
 62
7
100
AcDbLine
 10
14.933803
 20
260.033036
 30
0.0
 11
14.933803
 21
260.539804
 31
0.0
  0
LINE
  5
106
100
AcDbEntity
  8
Layer_1
 62
7
100
AcDbLine
 10
14.933803
 20
260.539804
 30
0.0
 11
14.933803
 21
261.046572
 31
0.0
  0
LINE
  5
107
100
AcDbEntity
  8
Layer_1
 62
7
100
AcDbLine
 10
14.933803
 20
261.046572
 30
0.0
 11
15.378271
 21
261.492938
 31
0.0
  0
LINE
  5
108
100
AcDbEntity
  8
Layer_1
 62
7
100
AcDbLine
 10
15.378271
 20
261.492938
 30
0.0
 11
15.822738
 21
261.939304
 31
0.0
  0
LINE
  5
109
100
AcDbEntity
  8
Layer_1
 62
7
100
AcDbLine
 10
15.822738
 20
261.939304
 30
0.0
 11
15.782988
 21
262.089923
 31
0.0
  0
SPLINE
  5
10a
100
AcDbEntity
  8
Layer_1
 62
7
100
AcDbSpline
 70
8
 71
3
 72
8
 73
4
 74
0
 40
0
 40
0
 40
0
 40
0
 40
1
 40
1
 40
1
 40
1
 10
15.782988
 20
262.089923
 30
0.0
 10
15.525305
 20
263.066185
 30
0.0
 10
15.813188
 20
264.134138
 30
0.0
 10
16.526748
 20
264.849109
 30
0.0
  0
SPLINE
  5
10b
100
AcDbEntity
  8
Layer_1
 62
7
100
AcDbSpline
 70
8
 71
3
 72
8
 73
4
 74
0
 40
0
 40
0
 40
0
 40
0
 40
1
 40
1
 40
1
 40
1
 10
16.526748
 20
264.849109
 30
0.0
 10
16.957379
 20
265.280585
 30
0.0
 10
17.520863
 20
265.568499
 30
0.0
 10
18.118883
 20
265.662615
 30
0.0
  0
LINE
  5
10c
100
AcDbEntity
  8
Layer_1
 62
7
100
AcDbLine
 10
18.118883
 20
265.662615
 30
0.0
 11
18.334883
 21
265.696615
 31
0.0
  0
LINE
  5
10d
100
AcDbEntity
  8
Layer_1
 62
7
100
AcDbLine
 10
18.334883
 20
265.696615
 30
0.0
 11
18.341883
 21
272.265182
 31
0.0
  0
LINE
  5
10e
100
AcDbEntity
  8
Layer_1
 62
7
100
AcDbLine
 10
18.341883
 20
272.265182
 30
0.0
 11
18.348883
 21
278.833750
 31
0.0
  0
LINE
  5
10f
100
AcDbEntity
  8
Layer_1
 62
7
100
AcDbLine
 10
18.348883
 20
278.833750
 30
0.0
 11
18.571911
 21
278.833750
 31
0.0
  0
LINE
  5
110
100
AcDbEntity
  8
Layer_1
 62
7
100
AcDbLine
 10
18.571911
 20
278.833750
 30
0.0
 11
18.794940
 21
278.833750
 31
0.0
  0
LINE
  5
111
100
AcDbEntity
  8
Layer_1
 62
7
100
AcDbLine
 10
18.794940
 20
278.833750
 30
0.0
 11
18.801940
 21
272.266209
 31
0.0
  0
LINE
  5
112
100
AcDbEntity
  8
Layer_1
 62
7
100
AcDbLine
 10
18.801940
 20
272.266209
 30
0.0
 11
18.808940
 21
265.698669
 31
0.0
  0
LINE
  5
113
100
AcDbEntity
  8
Layer_1
 62
7
100
AcDbLine
 10
18.808940
 20
265.698669
 30
0.0
 11
19.080699
 21
265.650589
 31
0.0
  0
SPLINE
  5
114
100
AcDbEntity
  8
Layer_1
 62
7
100
AcDbSpline
 70
8
 71
3
 72
8
 73
4
 74
0
 40
0
 40
0
 40
0
 40
0
 40
1
 40
1
 40
1
 40
1
 10
19.080699
 20
265.650589
 30
0.0
 10
19.787126
 20
265.525618
 30
0.0
 10
20.440131
 20
265.124375
 30
0.0
 10
20.878438
 20
264.545955
 30
0.0
  0
SPLINE
  5
115
100
AcDbEntity
  8
Layer_1
 62
7
100
AcDbSpline
 70
8
 71
3
 72
8
 73
4
 74
0
 40
0
 40
0
 40
0
 40
0
 40
1
 40
1
 40
1
 40
1
 10
20.878438
 20
264.545955
 30
0.0
 10
21.070200
 20
264.292893
 30
0.0
 10
21.277961
 20
263.857894
 30
0.0
 10
21.364442
 20
263.528386
 30
0.0
  0
SPLINE
  5
116
100
AcDbEntity
  8
Layer_1
 62
7
100
AcDbSpline
 70
8
 71
3
 72
8
 73
4
 74
0
 40
0
 40
0
 40
0
 40
0
 40
1
 40
1
 40
1
 40
1
 10
21.364442
 20
263.528386
 30
0.0
 10
21.427252
 20
263.289056
 30
0.0
 10
21.437812
 20
263.190415
 30
0.0
 10
21.439042
 20
262.831421
 30
0.0
  0
SPLINE
  5
117
100
AcDbEntity
  8
Layer_1
 62
7
100
AcDbSpline
 70
8
 71
3
 72
8
 73
4
 74
0
 40
0
 40
0
 40
0
 40
0
 40
1
 40
1
 40
1
 40
1
 10
21.439042
 20
262.831421
 30
0.0
 10
21.440242
 20
262.485390
 30
0.0
 10
21.429342
 20
262.368260
 30
0.0
 10
21.376202
 20
262.152529
 30
0.0
  0
LINE
  5
118
100
AcDbEntity
  8
Layer_1
 62
7
100
AcDbLine
 10
21.376202
 20
262.152529
 30
0.0
 11
21.311932
 21
261.891819
 31
0.0
  0
LINE
  5
119
100
AcDbEntity
  8
Layer_1
 62
7
100
AcDbLine
 10
21.311932
 20
261.891819
 30
0.0
 11
21.733099
 21
261.467476
 31
0.0
  0
LINE
  5
11a
100
AcDbEntity
  8
Layer_1
 62
7
100
AcDbLine
 10
21.733099
 20
261.467476
 30
0.0
 11
22.154267
 21
261.043134
 31
0.0
  0
LINE
  5
11b
100
AcDbEntity
  8
Layer_1
 62
7
100
AcDbLine
 10
22.154267
 20
261.043134
 30
0.0
 11
22.154267
 21
260.541564
 31
0.0
  0
LINE
  5
11c
100
AcDbEntity
  8
Layer_1
 62
7
100
AcDbLine
 10
22.154267
 20
260.541564
 30
0.0
 11
22.154267
 21
260.039993
 31
0.0
  0
LINE
  5
11d
100
AcDbEntity
  8
Layer_1
 62
7
100
AcDbLine
 10
22.154267
 20
260.039993
 30
0.0
 11
22.481841
 21
260.008303
 31
0.0
  0
SPLINE
  5
11e
100
AcDbEntity
  8
Layer_1
 62
7
100
AcDbSpline
 70
8
 71
3
 72
8
 73
4
 74
0
 40
0
 40
0
 40
0
 40
0
 40
1
 40
1
 40
1
 40
1
 10
22.481841
 20
260.008303
 30
0.0
 10
23.252630
 20
259.933733
 30
0.0
 10
23.843017
 20
259.655258
 30
0.0
 10
24.350082
 20
259.127086
 30
0.0
  0
SPLINE
  5
11f
100
AcDbEntity
  8
Layer_1
 62
7
100
AcDbSpline
 70
8
 71
3
 72
8
 73
4
 74
0
 40
0
 40
0
 40
0
 40
0
 40
1
 40
1
 40
1
 40
1
 10
24.350082
 20
259.127086
 30
0.0
 10
24.728921
 20
258.732480
 30
0.0
 10
24.973542
 20
258.264275
 30
0.0
 10
25.087490
 20
257.715695
 30
0.0
  0
SPLINE
  5
120
100
AcDbEntity
  8
Layer_1
 62
7
100
AcDbSpline
 70
8
 71
3
 72
8
 73
4
 74
0
 40
0
 40
0
 40
0
 40
0
 40
1
 40
1
 40
1
 40
1
 10
25.087490
 20
257.715695
 30
0.0
 10
25.167370
 20
257.331111
 30
0.0
 10
25.147230
 20
256.718885
 30
0.0
 10
25.043010
 20
256.363582
 30
0.0
  0
SPLINE
  5
121
100
AcDbEntity
  8
Layer_1
 62
7
100
AcDbSpline
 70
8
 71
3
 72
8
 73
4
 74
0
 40
0
 40
0
 40
0
 40
0
 40
1
 40
1
 40
1
 40
1
 10
25.043010
 20
256.363582
 30
0.0
 10
24.741619
 20
255.336084
 30
0.0
 10
23.975168
 20
254.595917
 30
0.0
 10
22.943421
 20
254.335995
 30
0.0
  0
SPLINE
  5
122
100
AcDbEntity
  8
Layer_1
 62
7
100
AcDbSpline
 70
8
 71
3
 72
8
 73
4
 74
0
 40
0
 40
0
 40
0
 40
0
 40
1
 40
1
 40
1
 40
1
 10
22.943421
 20
254.335995
 30
0.0
 10
22.738668
 20
254.284415
 30
0.0
 10
22.623820
 20
254.274405
 30
0.0
 10
22.251836
 20
254.275735
 30
0.0
  0
SPLINE
  5
123
100
AcDbEntity
  8
Layer_1
 62
7
100
AcDbSpline
 70
8
 71
3
 72
8
 73
4
 74
0
 40
0
 40
0
 40
0
 40
0
 40
1
 40
1
 40
1
 40
1
 10
22.251836
 20
254.275735
 30
0.0
 10
21.864891
 20
254.277135
 30
0.0
 10
21.770638
 20
254.286735
 30
0.0
 10
21.540612
 20
254.348385
 30
0.0
  0
SPLINE
  5
124
100
AcDbEntity
  8
Layer_1
 62
7
100
AcDbSpline
 70
8
 71
3
 72
8
 73
4
 74
0
 40
0
 40
0
 40
0
 40
0
 40
1
 40
1
 40
1
 40
1
 10
21.540612
 20
254.348385
 30
0.0
 10
20.418453
 20
254.649086
 30
0.0
 10
19.604262
 20
255.548800
 30
0.0
 10
19.421400
 20
256.690199
 30
0.0
  0
SPLINE
  5
125
100
AcDbEntity
  8
Layer_1
 62
7
100
AcDbSpline
 70
8
 71
3
 72
8
 73
4
 74
0
 40
0
 40
0
 40
0
 40
0
 40
1
 40
1
 40
1
 40
1
 10
19.421400
 20
256.690199
 30
0.0
 10
19.372100
 20
256.997917
 30
0.0
 10
19.399830
 20
257.584626
 30
0.0
 10
19.477110
 20
257.869034
 30
0.0
  0
SPLINE
  5
126
100
AcDbEntity
  8
Layer_1
 62
7
100
AcDbSpline
 70
8
 71
3
 72
8
 73
4
 74
0
 40
0
 40
0
 40
0
 40
0
 40
1
 40
1
 40
1
 40
1
 10
19.477110
 20
257.869034
 30
0.0
 10
19.738658
 20
258.831539
 30
0.0
 10
20.445368
 20
259.580166
 30
0.0
 10
21.366150
 20
259.870117
 30
0.0
  0
LINE
  5
127
100
AcDbEntity
  8
Layer_1
 62
7
100
AcDbLine
 10
21.366150
 20
259.870117
 30
0.0
 11
21.651369
 21
259.959927
 31
0.0
  0
LINE
  5
128
100
AcDbEntity
  8
Layer_1
 62
7
100
AcDbLine
 10
21.651369
 20
259.959927
 30
0.0
 11
21.651919
 21
260.391570
 31
0.0
  0
LINE
  5
129
100
AcDbEntity
  8
Layer_1
 62
7
100
AcDbLine
 10
21.651919
 20
260.391570
 30
0.0
 11
21.652469
 21
260.823213
 31
0.0
  0
LINE
  5
12a
100
AcDbEntity
  8
Layer_1
 62
7
100
AcDbLine
 10
21.652469
 20
260.823213
 30
0.0
 11
21.370149
 21
261.106496
 31
0.0
  0
LINE
  5
12b
100
AcDbEntity
  8
Layer_1
 62
7
100
AcDbLine
 10
21.370149
 20
261.106496
 30
0.0
 11
21.087829
 21
261.389780
 31
0.0
  0
LINE
  5
12c
100
AcDbEntity
  8
Layer_1
 62
7
100
AcDbLine
 10
21.087829
 20
261.389780
 30
0.0
 11
20.954412
 21
261.190609
 31
0.0
  0
SPLINE
  5
12d
100
AcDbEntity
  8
Layer_1
 62
7
100
AcDbSpline
 70
8
 71
3
 72
8
 73
4
 74
0
 40
0
 40
0
 40
0
 40
0
 40
1
 40
1
 40
1
 40
1
 10
20.954412
 20
261.190609
 30
0.0
 10
20.677040
 20
260.776530
 30
0.0
 10
20.173596
 20
260.361765
 30
0.0
 10
19.718288
 20
260.172221
 30
0.0
  0
SPLINE
  5
12e
100
AcDbEntity
  8
Layer_1
 62
7
100
AcDbSpline
 70
8
 71
3
 72
8
 73
4
 74
0
 40
0
 40
0
 40
0
 40
0
 40
1
 40
1
 40
1
 40
1
 10
19.718288
 20
260.172221
 30
0.0
 10
19.281826
 20
259.990521
 30
0.0
 10
19.127489
 20
259.962714
 30
0.0
 10
18.557943
 20
259.963162
 30
0.0
  0
SPLINE
  5
12f
100
AcDbEntity
  8
Layer_1
 62
7
100
AcDbSpline
 70
8
 71
3
 72
8
 73
4
 74
0
 40
0
 40
0
 40
0
 40
0
 40
1
 40
1
 40
1
 40
1
 10
18.557943
 20
259.963162
 30
0.0
 10
18.076444
 20
259.963584
 30
0.0
 10
18.025708
 20
259.968562
 30
0.0
 10
17.794057
 20
260.039512
 30
0.0
  0
SPLINE
  5
130
100
AcDbEntity
  8
Layer_1
 62
7
100
AcDbSpline
 70
8
 71
3
 72
8
 73
4
 74
0
 40
0
 40
0
 40
0
 40
0
 40
1
 40
1
 40
1
 40
1
 10
17.794057
 20
260.039512
 30
0.0
 10
17.105450
 20
260.250255
 30
0.0
 10
16.543051
 20
260.656323
 30
0.0
 10
16.180422
 20
261.204601
 30
0.0
  0
LINE
  5
131
100
AcDbEntity
  8
Layer_1
 62
7
100
AcDbLine
 10
16.180422
 20
261.204601
 30
0.0
 11
16.035682
 21
261.423440
 31
0.0
  0
LINE
  5
132
100
AcDbEntity
  8
Layer_1
 62
7
100
AcDbLine
 10
16.035682
 20
261.423440
 30
0.0
 11
15.721049
 21
261.109865
 31
0.0
  0
LINE
  5
133
100
AcDbEntity
  8
Layer_1
 62
7
100
AcDbLine
 10
15.721049
 20
261.109865
 30
0.0
 11
15.406415
 21
260.796290
 31
0.0
  0
LINE
  5
134
100
AcDbEntity
  8
Layer_1
 62
7
100
AcDbLine
 10
15.406415
 20
260.796290
 30
0.0
 11
15.414015
 21
260.393274
 31
0.0
  0
LINE
  5
135
100
AcDbEntity
  8
Layer_1
 62
7
100
AcDbLine
 10
15.414015
 20
260.393274
 30
0.0
 11
15.421615
 21
259.990259
 31
0.0
  0
LINE
  5
136
100
AcDbEntity
  8
Layer_1
 62
7
100
AcDbLine
 10
15.421615
 20
259.990259
 30
0.0
 11
15.589752
 21
259.956259
 31
0.0
  0
SPLINE
  5
137
100
AcDbEntity
  8
Layer_1
 62
7
100
AcDbSpline
 70
8
 71
3
 72
8
 73
4
 74
0
 40
0
 40
0
 40
0
 40
0
 40
1
 40
1
 40
1
 40
1
 10
15.589752
 20
259.956259
 30
0.0
 10
16.697788
 20
259.732207
 30
0.0
 10
17.576425
 20
258.846014
 30
0.0
 10
17.811205
 20
257.715702
 30
0.0
  0
SPLINE
  5
138
100
AcDbEntity
  8
Layer_1
 62
7
100
AcDbSpline
 70
8
 71
3
 72
8
 73
4
 74
0
 40
0
 40
0
 40
0
 40
0
 40
1
 40
1
 40
1
 40
1
 10
17.811205
 20
257.715702
 30
0.0
 10
17.890965
 20
257.331706
 30
0.0
 10
17.870935
 20
256.719195
 30
0.0
 10
17.766985
 20
256.363589
 30
0.0
  0
SPLINE
  5
139
100
AcDbEntity
  8
Layer_1
 62
7
100
AcDbSpline
 70
8
 71
3
 72
8
 73
4
 74
0
 40
0
 40
0
 40
0
 40
0
 40
1
 40
1
 40
1
 40
1
 10
17.766985
 20
256.363589
 30
0.0
 10
17.472598
 20
255.356510
 30
0.0
 10
16.711958
 20
254.609614
 30
0.0
 10
15.717656
 20
254.351290
 30
0.0
  0
SPLINE
  5
13a
100
AcDbEntity
  8
Layer_1
 62
7
100
AcDbSpline
 70
8
 71
3
 72
8
 73
4
 74
0
 40
0
 40
0
 40
0
 40
0
 40
1
 40
1
 40
1
 40
1
 10
15.717656
 20
254.351290
 30
0.0
 10
15.385077
 20
254.264890
 30
0.0
 10
14.805381
 20
254.239341
 30
0.0
 10
14.500217
 20
254.297650
 30
0.0
  0
LINE
  5
13b
100
AcDbEntity
  8
Layer_1
 62
7
100
AcDbLine
 10
14.500217
 20
254.297650
 30
0.0
 11
14.500279
 21
254.297638
 31
0.0
  0
SPLINE
  5
13c
100
AcDbEntity
  8
Layer_1
 62
7
100
AcDbSpline
 70
8
 71
3
 72
8
 73
4
 74
0
 40
0
 40
0
 40
0
 40
0
 40
1
 40
1
 40
1
 40
1
 10
15.529647
 20
254.387568
 30
0.0
 10
16.375261
 20
254.547573
 30
0.0
 10
17.112253
 20
255.109514
 30
0.0
 10
17.499631
 20
255.889642
 30
0.0
  0
SPLINE
  5
13d
100
AcDbEntity
  8
Layer_1
 62
7
100
AcDbSpline
 70
8
 71
3
 72
8
 73
4
 74
0
 40
0
 40
0
 40
0
 40
0
 40
1
 40
1
 40
1
 40
1
 10
17.499631
 20
255.889642
 30
0.0
 10
18.056298
 20
257.010694
 30
0.0
 10
17.814453
 20
258.336886
 30
0.0
 10
16.897524
 20
259.191396
 30
0.0
  0
SPLINE
  5
13e
100
AcDbEntity
  8
Layer_1
 62
7
100
AcDbSpline
 70
8
 71
3
 72
8
 73
4
 74
0
 40
0
 40
0
 40
0
 40
0
 40
1
 40
1
 40
1
 40
1
 10
16.897524
 20
259.191396
 30
0.0
 10
16.393403
 20
259.661199
 30
0.0
 10
15.803007
 20
259.905947
 30
0.0
 10
15.101075
 20
259.936111
 30
0.0
  0
SPLINE
  5
13f
100
AcDbEntity
  8
Layer_1
 62
7
100
AcDbSpline
 70
8
 71
3
 72
8
 73
4
 74
0
 40
0
 40
0
 40
0
 40
0
 40
1
 40
1
 40
1
 40
1
 10
15.101075
 20
259.936111
 30
0.0
 10
14.340499
 20
259.968801
 30
0.0
 10
13.639352
 20
259.710355
 30
0.0
 10
13.085602
 20
259.193214
 30
0.0
  0
SPLINE
  5
140
100
AcDbEntity
  8
Layer_1
 62
7
100
AcDbSpline
 70
8
 71
3
 72
8
 73
4
 74
0
 40
0
 40
0
 40
0
 40
0
 40
1
 40
1
 40
1
 40
1
 10
13.085602
 20
259.193214
 30
0.0
 10
11.896191
 20
258.082435
 30
0.0
 10
11.879362
 20
256.252170
 30
0.0
 10
13.048102
 20
255.114904
 30
0.0
  0
SPLINE
  5
141
100
AcDbEntity
  8
Layer_1
 62
7
100
AcDbSpline
 70
8
 71
3
 72
8
 73
4
 74
0
 40
0
 40
0
 40
0
 40
0
 40
1
 40
1
 40
1
 40
1
 10
13.048102
 20
255.114904
 30
0.0
 10
13.695501
 20
254.484938
 30
0.0
 10
14.616933
 20
254.214869
 30
0.0
 10
15.529648
 20
254.387568
 30
0.0
  0
LINE
  5
142
100
AcDbEntity
  8
Layer_1
 62
7
100
AcDbLine
 10
15.529648
 20
254.387568
 30
0.0
 11
15.529647
 21
254.387568
 31
0.0
  0
SPLINE
  5
143
100
AcDbEntity
  8
Layer_1
 62
7
100
AcDbSpline
 70
8
 71
3
 72
8
 73
4
 74
0
 40
0
 40
0
 40
0
 40
0
 40
1
 40
1
 40
1
 40
1
 10
13.609569
 20
258.000653
 30
0.0
 10
13.469593
 20
258.050283
 30
0.0
 10
13.380236
 20
258.128371
 30
0.0
 10
13.319237
 20
258.254381
 30
0.0
  0
SPLINE
  5
144
100
AcDbEntity
  8
Layer_1
 62
7
100
AcDbSpline
 70
8
 71
3
 72
8
 73
4
 74
0
 40
0
 40
0
 40
0
 40
0
 40
1
 40
1
 40
1
 40
1
 10
13.319237
 20
258.254381
 30
0.0
 10
13.221647
 20
258.455973
 30
0.0
 10
13.249177
 20
258.657995
 30
0.0
 10
13.395287
 20
258.812416
 30
0.0
  0
SPLINE
  5
145
100
AcDbEntity
  8
Layer_1
 62
7
100
AcDbSpline
 70
8
 71
3
 72
8
 73
4
 74
0
 40
0
 40
0
 40
0
 40
0
 40
1
 40
1
 40
1
 40
1
 10
13.395287
 20
258.812416
 30
0.0
 10
13.504765
 20
258.928126
 30
0.0
 10
13.602843
 20
258.970228
 30
0.0
 10
13.762904
 20
258.970228
 30
0.0
  0
SPLINE
  5
146
100
AcDbEntity
  8
Layer_1
 62
7
100
AcDbSpline
 70
8
 71
3
 72
8
 73
4
 74
0
 40
0
 40
0
 40
0
 40
0
 40
1
 40
1
 40
1
 40
1
 10
13.762904
 20
258.970228
 30
0.0
 10
14.339350
 20
258.970228
 30
0.0
 10
14.453837
 20
258.188528
 30
0.0
 10
13.905107
 20
257.999281
 30
0.0
  0
SPLINE
  5
147
100
AcDbEntity
  8
Layer_1
 62
7
100
AcDbSpline
 70
8
 71
3
 72
8
 73
4
 74
0
 40
0
 40
0
 40
0
 40
0
 40
1
 40
1
 40
1
 40
1
 10
13.905107
 20
257.999281
 30
0.0
 10
13.792363
 20
257.960401
 30
0.0
 10
13.722193
 20
257.960721
 30
0.0
 10
13.609572
 20
258.000681
 30
0.0
  0
LINE
  5
148
100
AcDbEntity
  8
Layer_1
 62
7
100
AcDbLine
 10
13.609572
 20
258.000681
 30
0.0
 11
13.609569
 21
258.000653
 31
0.0
  0
SPLINE
  5
149
100
AcDbEntity
  8
Layer_1
 62
7
100
AcDbSpline
 70
8
 71
3
 72
8
 73
4
 74
0
 40
0
 40
0
 40
0
 40
0
 40
1
 40
1
 40
1
 40
1
 10
13.956115
 20
258.091053
 30
0.0
 10
14.074588
 20
258.152313
 30
0.0
 10
14.173528
 20
258.285447
 30
0.0
 10
14.194988
 20
258.412470
 30
0.0
  0
SPLINE
  5
14a
100
AcDbEntity
  8
Layer_1
 62
7
100
AcDbSpline
 70
8
 71
3
 72
8
 73
4
 74
0
 40
0
 40
0
 40
0
 40
0
 40
1
 40
1
 40
1
 40
1
 10
14.194988
 20
258.412470
 30
0.0
 10
14.218188
 20
258.549806
 30
0.0
 10
14.128218
 20
258.753623
 30
0.0
 10
14.004794
 20
258.843328
 30
0.0
  0
SPLINE
  5
14b
100
AcDbEntity
  8
Layer_1
 62
7
100
AcDbSpline
 70
8
 71
3
 72
8
 73
4
 74
0
 40
0
 40
0
 40
0
 40
0
 40
1
 40
1
 40
1
 40
1
 10
14.004794
 20
258.843328
 30
0.0
 10
13.894580
 20
258.923428
 30
0.0
 10
13.630986
 20
258.923328
 30
0.0
 10
13.521008
 20
258.843118
 30
0.0
  0
SPLINE
  5
14c
100
AcDbEntity
  8
Layer_1
 62
7
100
AcDbSpline
 70
8
 71
3
 72
8
 73
4
 74
0
 40
0
 40
0
 40
0
 40
0
 40
1
 40
1
 40
1
 40
1
 10
13.521008
 20
258.843118
 30
0.0
 10
13.401917
 20
258.756288
 30
0.0
 10
13.310486
 20
258.561112
 30
0.0
 10
13.327001
 20
258.428983
 30
0.0
  0
SPLINE
  5
14d
100
AcDbEntity
  8
Layer_1
 62
7
100
AcDbSpline
 70
8
 71
3
 72
8
 73
4
 74
0
 40
0
 40
0
 40
0
 40
0
 40
1
 40
1
 40
1
 40
1
 10
13.327001
 20
258.428983
 30
0.0
 10
13.362751
 20
258.142914
 30
0.0
 10
13.703004
 20
257.960136
 30
0.0
 10
13.956115
 20
258.091025
 30
0.0
  0
LINE
  5
14e
100
AcDbEntity
  8
Layer_1
 62
7
100
AcDbLine
 10
13.956115
 20
258.091025
 30
0.0
 11
13.956115
 21
258.091053
 31
0.0
  0
SPLINE
  5
14f
100
AcDbEntity
  8
Layer_1
 62
7
100
AcDbSpline
 70
8
 71
3
 72
8
 73
4
 74
0
 40
0
 40
0
 40
0
 40
0
 40
1
 40
1
 40
1
 40
1
 10
22.805965
 20
254.387570
 30
0.0
 10
24.046573
 20
254.622314
 30
0.0
 10
24.980716
 20
255.689218
 30
0.0
 10
25.071069
 20
256.974594
 30
0.0
  0
SPLINE
  5
150
100
AcDbEntity
  8
Layer_1
 62
7
100
AcDbSpline
 70
8
 71
3
 72
8
 73
4
 74
0
 40
0
 40
0
 40
0
 40
0
 40
1
 40
1
 40
1
 40
1
 10
25.071069
 20
256.974594
 30
0.0
 10
25.110629
 20
257.537371
 30
0.0
 10
24.943942
 20
258.166667
 30
0.0
 10
24.623304
 20
258.665064
 30
0.0
  0
SPLINE
  5
151
100
AcDbEntity
  8
Layer_1
 62
7
100
AcDbSpline
 70
8
 71
3
 72
8
 73
4
 74
0
 40
0
 40
0
 40
0
 40
0
 40
1
 40
1
 40
1
 40
1
 10
24.623304
 20
258.665064
 30
0.0
 10
24.438756
 20
258.951924
 30
0.0
 10
24.009043
 20
259.368463
 30
0.0
 10
23.722004
 20
259.538735
 30
0.0
  0
SPLINE
  5
152
100
AcDbEntity
  8
Layer_1
 62
7
100
AcDbSpline
 70
8
 71
3
 72
8
 73
4
 74
0
 40
0
 40
0
 40
0
 40
0
 40
1
 40
1
 40
1
 40
1
 10
23.722004
 20
259.538735
 30
0.0
 10
22.792678
 20
260.090011
 30
0.0
 10
21.650797
 20
260.076669
 30
0.0
 10
20.758252
 20
259.504115
 30
0.0
  0
SPLINE
  5
153
100
AcDbEntity
  8
Layer_1
 62
7
100
AcDbSpline
 70
8
 71
3
 72
8
 73
4
 74
0
 40
0
 40
0
 40
0
 40
0
 40
1
 40
1
 40
1
 40
1
 10
20.758252
 20
259.504115
 30
0.0
 10
19.419051
 20
258.645026
 30
0.0
 10
19.056451
 20
256.856083
 30
0.0
 10
19.956817
 20
255.550112
 30
0.0
  0
SPLINE
  5
154
100
AcDbEntity
  8
Layer_1
 62
7
100
AcDbSpline
 70
8
 71
3
 72
8
 73
4
 74
0
 40
0
 40
0
 40
0
 40
0
 40
1
 40
1
 40
1
 40
1
 10
19.956817
 20
255.550112
 30
0.0
 10
20.595377
 20
254.623884
 30
0.0
 10
21.691387
 20
254.176681
 30
0.0
 10
22.805965
 20
254.387577
 30
0.0
  0
LINE
  5
155
100
AcDbEntity
  8
Layer_1
 62
7
100
AcDbLine
 10
22.805965
 20
254.387577
 30
0.0
 11
22.805965
 21
254.387570
 31
0.0
  0
SPLINE
  5
156
100
AcDbEntity
  8
Layer_1
 62
7
100
AcDbSpline
 70
8
 71
3
 72
8
 73
4
 74
0
 40
0
 40
0
 40
0
 40
0
 40
1
 40
1
 40
1
 40
1
 10
20.885887
 20
258.002161
 30
0.0
 10
20.736463
 20
258.063151
 30
0.0
 10
20.652756
 20
258.136220
 30
0.0
 10
20.594531
 20
258.256498
 30
0.0
  0
SPLINE
  5
157
100
AcDbEntity
  8
Layer_1
 62
7
100
AcDbSpline
 70
8
 71
3
 72
8
 73
4
 74
0
 40
0
 40
0
 40
0
 40
0
 40
1
 40
1
 40
1
 40
1
 10
20.594531
 20
258.256498
 30
0.0
 10
20.497971
 20
258.455976
 30
0.0
 10
20.526051
 20
258.658586
 30
0.0
 10
20.671601
 20
258.812418
 30
0.0
  0
SPLINE
  5
158
100
AcDbEntity
  8
Layer_1
 62
7
100
AcDbSpline
 70
8
 71
3
 72
8
 73
4
 74
0
 40
0
 40
0
 40
0
 40
0
 40
1
 40
1
 40
1
 40
1
 10
20.671601
 20
258.812418
 30
0.0
 10
20.781081
 20
258.928128
 30
0.0
 10
20.879159
 20
258.970230
 30
0.0
 10
21.039220
 20
258.970230
 30
0.0
  0
SPLINE
  5
159
100
AcDbEntity
  8
Layer_1
 62
7
100
AcDbSpline
 70
8
 71
3
 72
8
 73
4
 74
0
 40
0
 40
0
 40
0
 40
0
 40
1
 40
1
 40
1
 40
1
 10
21.039220
 20
258.970230
 30
0.0
 10
21.449485
 20
258.970230
 30
0.0
 10
21.676268
 20
258.536427
 30
0.0
 10
21.447066
 20
258.190078
 30
0.0
  0
SPLINE
  5
15a
100
AcDbEntity
  8
Layer_1
 62
7
100
AcDbSpline
 70
8
 71
3
 72
8
 73
4
 74
0
 40
0
 40
0
 40
0
 40
0
 40
1
 40
1
 40
1
 40
1
 10
21.447066
 20
258.190078
 30
0.0
 10
21.333866
 20
258.019022
 30
0.0
 10
21.065089
 20
257.929018
 30
0.0
 10
20.885887
 20
258.002161
 30
0.0
  0
LINE
  5
15b
100
AcDbEntity
  8
Layer_1
 62
7
100
AcDbLine
 10
20.885887
 20
258.002161
 30
0.0
 11
20.885887
 21
258.002161
 31
0.0
  0
SPLINE
  5
15c
100
AcDbEntity
  8
Layer_1
 62
7
100
AcDbSpline
 70
8
 71
3
 72
8
 73
4
 74
0
 40
0
 40
0
 40
0
 40
0
 40
1
 40
1
 40
1
 40
1
 10
21.262533
 20
258.112963
 30
0.0
 10
21.474658
 20
258.257334
 30
0.0
 10
21.532586
 20
258.453929
 30
0.0
 10
21.424290
 20
258.661934
 30
0.0
  0
SPLINE
  5
15d
100
AcDbEntity
  8
Layer_1
 62
7
100
AcDbSpline
 70
8
 71
3
 72
8
 73
4
 74
0
 40
0
 40
0
 40
0
 40
0
 40
1
 40
1
 40
1
 40
1
 10
21.424290
 20
258.661934
 30
0.0
 10
21.330270
 20
258.842528
 30
0.0
 10
21.236650
 20
258.900535
 30
0.0
 10
21.039220
 20
258.900535
 30
0.0
  0
SPLINE
  5
15e
100
AcDbEntity
  8
Layer_1
 62
7
100
AcDbSpline
 70
8
 71
3
 72
8
 73
4
 74
0
 40
0
 40
0
 40
0
 40
0
 40
1
 40
1
 40
1
 40
1
 10
21.039220
 20
258.900535
 30
0.0
 10
20.839298
 20
258.900535
 30
0.0
 10
20.746504
 20
258.841715
 30
0.0
 10
20.653306
 20
258.655927
 30
0.0
  0
SPLINE
  5
15f
100
AcDbEntity
  8
Layer_1
 62
7
100
AcDbSpline
 70
8
 71
3
 72
8
 73
4
 74
0
 40
0
 40
0
 40
0
 40
0
 40
1
 40
1
 40
1
 40
1
 10
20.653306
 20
258.655927
 30
0.0
 10
20.602166
 20
258.553976
 30
0.0
 10
20.592086
 20
258.501548
 30
0.0
 10
20.606826
 20
258.414258
 30
0.0
  0
SPLINE
  5
160
100
AcDbEntity
  8
Layer_1
 62
7
100
AcDbSpline
 70
8
 71
3
 72
8
 73
4
 74
0
 40
0
 40
0
 40
0
 40
0
 40
1
 40
1
 40
1
 40
1
 10
20.606826
 20
258.414258
 30
0.0
 10
20.657676
 20
258.113292
 30
0.0
 10
21.019037
 20
257.947246
 30
0.0
 10
21.262528
 20
258.112963
 30
0.0
  0
LINE
  5
161
100
AcDbEntity
  8
Layer_1
 62
7
100
AcDbLine
 10
21.262528
 20
258.112963
 30
0.0
 11
21.262533
 21
258.112963
 31
0.0
  0
LINE
  5
162
100
AcDbEntity
  8
Layer_1
 62
7
100
AcDbLine
 10
21.941384
 20
259.991590
 30
0.0
 11
22.070728
 21
260.009320
 31
0.0
  0
LINE
  5
163
100
AcDbEntity
  8
Layer_1
 62
7
100
AcDbLine
 10
22.070728
 20
260.009320
 30
0.0
 11
22.070728
 21
260.500737
 31
0.0
  0
LINE
  5
164
100
AcDbEntity
  8
Layer_1
 62
7
100
AcDbLine
 10
22.070728
 20
260.500737
 30
0.0
 11
22.070728
 21
260.992153
 31
0.0
  0
LINE
  5
165
100
AcDbEntity
  8
Layer_1
 62
7
100
AcDbLine
 10
22.070728
 20
260.992153
 30
0.0
 11
21.667419
 21
261.394744
 31
0.0
  0
LINE
  5
166
100
AcDbEntity
  8
Layer_1
 62
7
100
AcDbLine
 10
21.667419
 20
261.394744
 30
0.0
 11
21.264108
 21
261.797336
 31
0.0
  0
LINE
  5
167
100
AcDbEntity
  8
Layer_1
 62
7
100
AcDbLine
 10
21.264108
 20
261.797336
 30
0.0
 11
21.196218
 21
261.645292
 31
0.0
  0
LINE
  5
168
100
AcDbEntity
  8
Layer_1
 62
7
100
AcDbLine
 10
21.196218
 20
261.645292
 30
0.0
 11
21.128338
 21
261.493248
 31
0.0
  0
LINE
  5
169
100
AcDbEntity
  8
Layer_1
 62
7
100
AcDbLine
 10
21.128338
 20
261.493248
 30
0.0
 11
21.432260
 21
261.183894
 31
0.0
  0
LINE
  5
16a
100
AcDbEntity
  8
Layer_1
 62
7
100
AcDbLine
 10
21.432260
 20
261.183894
 30
0.0
 11
21.736183
 21
260.874540
 31
0.0
  0
LINE
  5
16b
100
AcDbEntity
  8
Layer_1
 62
7
100
AcDbLine
 10
21.736183
 20
260.874540
 30
0.0
 11
21.736183
 21
260.424201
 31
0.0
  0
SPLINE
  5
16c
100
AcDbEntity
  8
Layer_1
 62
7
100
AcDbSpline
 70
8
 71
3
 72
8
 73
4
 74
0
 40
0
 40
0
 40
0
 40
0
 40
1
 40
1
 40
1
 40
1
 10
21.736183
 20
260.424201
 30
0.0
 10
21.736183
 20
260.063021
 30
0.0
 10
21.743683
 20
259.973862
 30
0.0
 10
21.774113
 20
259.973862
 30
0.0
  0
SPLINE
  5
16d
100
AcDbEntity
  8
Layer_1
 62
7
100
AcDbSpline
 70
8
 71
3
 72
8
 73
4
 74
0
 40
0
 40
0
 40
0
 40
0
 40
1
 40
1
 40
1
 40
1
 10
21.774113
 20
259.973862
 30
0.0
 10
21.794973
 20
259.973862
 30
0.0
 10
21.870243
 20
259.981862
 30
0.0
 10
21.941384
 20
259.991592
 30
0.0
  0
LINE
  5
16e
100
AcDbEntity
  8
Layer_1
 62
7
100
AcDbLine
 10
21.941384
 20
259.991592
 30
0.0
 11
21.941384
 21
259.991590
 31
0.0
  0
LINE
  5
16f
100
AcDbEntity
  8
Layer_1
 62
7
100
AcDbLine
 10
15.351983
 20
260.440411
 30
0.0
 11
15.351983
 21
260.879080
 31
0.0
  0
LINE
  5
170
100
AcDbEntity
  8
Layer_1
 62
7
100
AcDbLine
 10
15.351983
 20
260.879080
 30
0.0
 11
15.672601
 21
261.200535
 31
0.0
  0
LINE
  5
171
100
AcDbEntity
  8
Layer_1
 62
7
100
AcDbLine
 10
15.672601
 20
261.200535
 30
0.0
 11
15.993218
 21
261.521991
 31
0.0
  0
LINE
  5
172
100
AcDbEntity
  8
Layer_1
 62
7
100
AcDbLine
 10
15.993218
 20
261.521991
 30
0.0
 11
15.930478
 21
261.681805
 31
0.0
  0
SPLINE
  5
173
100
AcDbEntity
  8
Layer_1
 62
7
100
AcDbSpline
 70
8
 71
3
 72
8
 73
4
 74
0
 40
0
 40
0
 40
0
 40
0
 40
1
 40
1
 40
1
 40
1
 10
15.930478
 20
261.681805
 30
0.0
 10
15.895978
 20
261.769705
 30
0.0
 10
15.860938
 20
261.841645
 30
0.0
 10
15.852628
 20
261.841674
 30
0.0
  0
SPLINE
  5
174
100
AcDbEntity
  8
Layer_1
 62
7
100
AcDbSpline
 70
8
 71
3
 72
8
 73
4
 74
0
 40
0
 40
0
 40
0
 40
0
 40
1
 40
1
 40
1
 40
1
 10
15.852628
 20
261.841674
 30
0.0
 10
15.844328
 20
261.841703
 30
0.0
 10
15.646729
 20
261.649500
 30
0.0
 10
15.413540
 20
261.414554
 30
0.0
  0
LINE
  5
175
100
AcDbEntity
  8
Layer_1
 62
7
100
AcDbLine
 10
15.413540
 20
261.414554
 30
0.0
 11
14.989559
 21
260.987377
 31
0.0
  0
LINE
  5
176
100
AcDbEntity
  8
Layer_1
 62
7
100
AcDbLine
 10
14.989559
 20
260.987377
 30
0.0
 11
14.989559
 21
260.513145
 31
0.0
  0
SPLINE
  5
177
100
AcDbEntity
  8
Layer_1
 62
7
100
AcDbSpline
 70
8
 71
3
 72
8
 73
4
 74
0
 40
0
 40
0
 40
0
 40
0
 40
1
 40
1
 40
1
 40
1
 10
14.989559
 20
260.513145
 30
0.0
 10
14.989559
 20
260.252317
 30
0.0
 10
14.997959
 20
260.030549
 30
0.0
 10
15.008139
 20
260.020328
 30
0.0
  0
SPLINE
  5
178
100
AcDbEntity
  8
Layer_1
 62
7
100
AcDbSpline
 70
8
 71
3
 72
8
 73
4
 74
0
 40
0
 40
0
 40
0
 40
0
 40
1
 40
1
 40
1
 40
1
 10
15.008139
 20
260.020328
 30
0.0
 10
15.018359
 20
260.010108
 30
0.0
 10
15.099909
 20
260.001738
 30
0.0
 10
15.189351
 20
260.001738
 30
0.0
  0
LINE
  5
179
100
AcDbEntity
  8
Layer_1
 62
7
100
AcDbLine
 10
15.189351
 20
260.001738
 30
0.0
 11
15.351976
 21
260.001738
 31
0.0
  0
LINE
  5
17a
100
AcDbEntity
  8
Layer_1
 62
7
100
AcDbLine
 10
15.351976
 20
260.001738
 30
0.0
 11
15.351983
 21
260.440411
 31
0.0
  0
SPLINE
  5
17b
100
AcDbEntity
  8
Layer_1
 62
7
100
AcDbSpline
 70
8
 71
3
 72
8
 73
4
 74
0
 40
0
 40
0
 40
0
 40
0
 40
1
 40
1
 40
1
 40
1
 10
19.157006
 20
260.072099
 30
0.0
 10
20.180691
 20
260.284192
 30
0.0
 10
21.012573
 20
261.082989
 30
0.0
 10
21.294896
 20
262.124964
 30
0.0
  0
SPLINE
  5
17c
100
AcDbEntity
  8
Layer_1
 62
7
100
AcDbSpline
 70
8
 71
3
 72
8
 73
4
 74
0
 40
0
 40
0
 40
0
 40
0
 40
1
 40
1
 40
1
 40
1
 10
21.294896
 20
262.124964
 30
0.0
 10
21.348376
 20
262.322328
 30
0.0
 10
21.357896
 20
262.427033
 30
0.0
 10
21.357896
 20
262.817481
 30
0.0
  0
SPLINE
  5
17d
100
AcDbEntity
  8
Layer_1
 62
7
100
AcDbSpline
 70
8
 71
3
 72
8
 73
4
 74
0
 40
0
 40
0
 40
0
 40
0
 40
1
 40
1
 40
1
 40
1
 10
21.357896
 20
262.817481
 30
0.0
 10
21.357896
 20
263.209599
 30
0.0
 10
21.348496
 20
263.312448
 30
0.0
 10
21.293966
 20
263.514447
 30
0.0
  0
SPLINE
  5
17e
100
AcDbEntity
  8
Layer_1
 62
7
100
AcDbSpline
 70
8
 71
3
 72
8
 73
4
 74
0
 40
0
 40
0
 40
0
 40
0
 40
1
 40
1
 40
1
 40
1
 10
21.293966
 20
263.514447
 30
0.0
 10
21.164764
 20
263.993370
 30
0.0
 10
20.938032
 20
264.390490
 30
0.0
 10
20.580434
 20
264.764192
 30
0.0
  0
SPLINE
  5
17f
100
AcDbEntity
  8
Layer_1
 62
7
100
AcDbSpline
 70
8
 71
3
 72
8
 73
4
 74
0
 40
0
 40
0
 40
0
 40
0
 40
1
 40
1
 40
1
 40
1
 10
20.580434
 20
264.764192
 30
0.0
 10
19.642474
 20
265.744395
 30
0.0
 10
18.148136
 20
265.906358
 30
0.0
 10
17.018279
 20
265.150274
 30
0.0
  0
SPLINE
  5
180
100
AcDbEntity
  8
Layer_1
 62
7
100
AcDbSpline
 70
8
 71
3
 72
8
 73
4
 74
0
 40
0
 40
0
 40
0
 40
0
 40
1
 40
1
 40
1
 40
1
 10
17.018279
 20
265.150274
 30
0.0
 10
16.454736
 20
264.773159
 30
0.0
 10
16.025391
 20
264.172595
 30
0.0
 10
15.848820
 20
263.514447
 30
0.0
  0
SPLINE
  5
181
100
AcDbEntity
  8
Layer_1
 62
7
100
AcDbSpline
 70
8
 71
3
 72
8
 73
4
 74
0
 40
0
 40
0
 40
0
 40
0
 40
1
 40
1
 40
1
 40
1
 10
15.848820
 20
263.514447
 30
0.0
 10
15.763480
 20
263.196361
 30
0.0
 10
15.756250
 20
262.466364
 30
0.0
 10
15.835410
 20
262.162334
 30
0.0
  0
SPLINE
  5
182
100
AcDbEntity
  8
Layer_1
 62
7
100
AcDbSpline
 70
8
 71
3
 72
8
 73
4
 74
0
 40
0
 40
0
 40
0
 40
0
 40
1
 40
1
 40
1
 40
1
 10
15.835410
 20
262.162334
 30
0.0
 10
16.019205
 20
261.456526
 30
0.0
 10
16.424694
 20
260.880100
 30
0.0
 10
17.013842
 20
260.487131
 30
0.0
  0
SPLINE
  5
183
100
AcDbEntity
  8
Layer_1
 62
7
100
AcDbSpline
 70
8
 71
3
 72
8
 73
4
 74
0
 40
0
 40
0
 40
0
 40
0
 40
1
 40
1
 40
1
 40
1
 10
17.013842
 20
260.487131
 30
0.0
 10
17.656411
 20
260.058528
 30
0.0
 10
18.398174
 20
259.914882
 30
0.0
 10
19.156997
 20
260.072099
 30
0.0
  0
LINE
  5
184
100
AcDbEntity
  8
Layer_1
 62
7
100
AcDbLine
 10
19.156997
 20
260.072099
 30
0.0
 11
19.157006
 21
260.072099
 31
0.0
  0
SPLINE
  5
185
100
AcDbEntity
  8
Layer_1
 62
7
100
AcDbSpline
 70
8
 71
3
 72
8
 73
4
 74
0
 40
0
 40
0
 40
0
 40
0
 40
1
 40
1
 40
1
 40
1
 10
17.150154
 20
263.693509
 30
0.0
 10
16.848392
 20
263.828761
 30
0.0
 10
16.751550
 20
264.200026
 30
0.0
 10
16.948533
 20
264.466461
 30
0.0
  0
SPLINE
  5
186
100
AcDbEntity
  8
Layer_1
 62
7
100
AcDbSpline
 70
8
 71
3
 72
8
 73
4
 74
0
 40
0
 40
0
 40
0
 40
0
 40
1
 40
1
 40
1
 40
1
 10
16.948533
 20
264.466461
 30
0.0
 10
17.150086
 20
264.739075
 30
0.0
 10
17.606801
 20
264.704182
 30
0.0
 10
17.775936
 20
264.403241
 30
0.0
  0
SPLINE
  5
187
100
AcDbEntity
  8
Layer_1
 62
7
100
AcDbSpline
 70
8
 71
3
 72
8
 73
4
 74
0
 40
0
 40
0
 40
0
 40
0
 40
1
 40
1
 40
1
 40
1
 10
17.775936
 20
264.403241
 30
0.0
 10
17.843726
 20
264.282619
 30
0.0
 10
17.852656
 20
264.050780
 30
0.0
 10
17.793846
 20
263.938207
 30
0.0
  0
SPLINE
  5
188
100
AcDbEntity
  8
Layer_1
 62
7
100
AcDbSpline
 70
8
 71
3
 72
8
 73
4
 74
0
 40
0
 40
0
 40
0
 40
0
 40
1
 40
1
 40
1
 40
1
 10
17.793846
 20
263.938207
 30
0.0
 10
17.668807
 20
263.698862
 30
0.0
 10
17.381705
 20
263.589719
 30
0.0
 10
17.150150
 20
263.693505
 30
0.0
  0
LINE
  5
189
100
AcDbEntity
  8
Layer_1
 62
7
100
AcDbLine
 10
17.150150
 20
263.693505
 30
0.0
 11
17.150154
 21
263.693509
 31
0.0
  0
SPLINE
  5
18a
100
AcDbEntity
  8
Layer_1
 62
7
100
AcDbSpline
 70
8
 71
3
 72
8
 73
4
 74
0
 40
0
 40
0
 40
0
 40
0
 40
1
 40
1
 40
1
 40
1
 10
17.527352
 20
263.772319
 30
0.0
 10
17.843779
 20
263.932174
 30
0.0
 10
17.866806
 20
264.311943
 30
0.0
 10
17.573262
 20
264.529448
 30
0.0
  0
SPLINE
  5
18b
100
AcDbEntity
  8
Layer_1
 62
7
100
AcDbSpline
 70
8
 71
3
 72
8
 73
4
 74
0
 40
0
 40
0
 40
0
 40
0
 40
1
 40
1
 40
1
 40
1
 10
17.573262
 20
264.529448
 30
0.0
 10
17.516432
 20
264.571558
 30
0.0
 10
17.453069
 20
264.587768
 30
0.0
 10
17.345308
 20
264.587768
 30
0.0
  0
SPLINE
  5
18c
100
AcDbEntity
  8
Layer_1
 62
7
100
AcDbSpline
 70
8
 71
3
 72
8
 73
4
 74
0
 40
0
 40
0
 40
0
 40
0
 40
1
 40
1
 40
1
 40
1
 10
17.345308
 20
264.587768
 30
0.0
 10
16.858608
 20
264.587768
 30
0.0
 10
16.745756
 20
263.904021
 30
0.0
 10
17.205915
 20
263.743221
 30
0.0
  0
SPLINE
  5
18d
100
AcDbEntity
  8
Layer_1
 62
7
100
AcDbSpline
 70
8
 71
3
 72
8
 73
4
 74
0
 40
0
 40
0
 40
0
 40
0
 40
1
 40
1
 40
1
 40
1
 10
17.205915
 20
263.743221
 30
0.0
 10
17.333398
 20
263.698671
 30
0.0
 10
17.392090
 20
263.703991
 30
0.0
 10
17.527357
 20
263.772321
 30
0.0
  0
LINE
  5
18e
100
AcDbEntity
  8
Layer_1
 62
7
100
AcDbLine
 10
17.527357
 20
263.772321
 30
0.0
 11
17.527352
 21
263.772319
 31
0.0
  0
LINE
  5
18f
100
AcDbEntity
  8
Layer_1
 62
7
100
AcDbLine
 10
18.753173
 20
272.226509
 30
0.0
 11
18.753173
 21
278.764044
 31
0.0
  0
LINE
  5
190
100
AcDbEntity
  8
Layer_1
 62
7
100
AcDbLine
 10
18.753173
 20
278.764044
 30
0.0
 11
18.571962
 21
278.764044
 31
0.0
  0
LINE
  5
191
100
AcDbEntity
  8
Layer_1
 62
7
100
AcDbLine
 10
18.571962
 20
278.764044
 30
0.0
 11
18.390751
 21
278.764044
 31
0.0
  0
LINE
  5
192
100
AcDbEntity
  8
Layer_1
 62
7
100
AcDbLine
 10
18.390751
 20
278.764044
 30
0.0
 11
18.390751
 21
272.226509
 31
0.0
  0
LINE
  5
193
100
AcDbEntity
  8
Layer_1
 62
7
100
AcDbLine
 10
18.390751
 20
272.226509
 30
0.0
 11
18.390751
 21
265.688974
 31
0.0
  0
LINE
  5
194
100
AcDbEntity
  8
Layer_1
 62
7
100
AcDbLine
 10
18.390751
 20
265.688974
 30
0.0
 11
18.571962
 21
265.688974
 31
0.0
  0
LINE
  5
195
100
AcDbEntity
  8
Layer_1
 62
7
100
AcDbLine
 10
18.571962
 20
265.688974
 30
0.0
 11
18.753173
 21
265.688974
 31
0.0
  0
LINE
  5
196
100
AcDbEntity
  8
Layer_1
 62
7
100
AcDbLine
 10
18.753173
 20
265.688974
 30
0.0
 11
18.753173
 21
272.226509
 31
0.0
  0
SPLINE
  5
197
100
AcDbEntity
  8
Layer_1
 62
7
100
AcDbSpline
 70
8
 71
3
 72
8
 73
4
 74
0
 40
0
 40
0
 40
0
 40
0
 40
1
 40
1
 40
1
 40
1
 10
10.958107
 20
259.976316
 30
0.0
 10
10.749984
 20
260.011136
 30
0.0
 10
10.372555
 20
260.135198
 30
0.0
 10
10.180499
 20
260.231930
 30
0.0
  0
SPLINE
  5
198
100
AcDbEntity
  8
Layer_1
 62
7
100
AcDbSpline
 70
8
 71
3
 72
8
 73
4
 74
0
 40
0
 40
0
 40
0
 40
0
 40
1
 40
1
 40
1
 40
1
 10
10.180499
 20
260.231930
 30
0.0
 10
9.409377
 20
260.620319
 30
0.0
 10
8.895414
 20
261.265298
 30
0.0
 10
8.654019
 20
262.147531
 30
0.0
  0
SPLINE
  5
199
100
AcDbEntity
  8
Layer_1
 62
7
100
AcDbSpline
 70
8
 71
3
 72
8
 73
4
 74
0
 40
0
 40
0
 40
0
 40
0
 40
1
 40
1
 40
1
 40
1
 10
8.654019
 20
262.147531
 30
0.0
 10
8.570994
 20
262.450968
 30
0.0
 10
8.570994
 20
263.183985
 30
0.0
 10
8.654019
 20
263.487422
 30
0.0
  0
SPLINE
  5
19a
100
AcDbEntity
  8
Layer_1
 62
7
100
AcDbSpline
 70
8
 71
3
 72
8
 73
4
 74
0
 40
0
 40
0
 40
0
 40
0
 40
1
 40
1
 40
1
 40
1
 10
8.654019
 20
263.487422
 30
0.0
 10
8.952054
 20
264.576661
 30
0.0
 10
9.692549
 20
265.327678
 30
0.0
 10
10.747120
 20
265.610264
 30
0.0
  0
SPLINE
  5
19b
100
AcDbEntity
  8
Layer_1
 62
7
100
AcDbSpline
 70
8
 71
3
 72
8
 73
4
 74
0
 40
0
 40
0
 40
0
 40
0
 40
1
 40
1
 40
1
 40
1
 10
10.747120
 20
265.610264
 30
0.0
 10
11.072896
 20
265.697564
 30
0.0
 10
11.687171
 20
265.711373
 30
0.0
 10
12.034428
 20
265.639214
 30
0.0
  0
SPLINE
  5
19c
100
AcDbEntity
  8
Layer_1
 62
7
100
AcDbSpline
 70
8
 71
3
 72
8
 73
4
 74
0
 40
0
 40
0
 40
0
 40
0
 40
1
 40
1
 40
1
 40
1
 10
12.034428
 20
265.639214
 30
0.0
 10
12.909108
 20
265.457449
 30
0.0
 10
13.641453
 20
264.896574
 30
0.0
 10
14.040588
 20
264.102776
 30
0.0
  0
LINE
  5
19d
100
AcDbEntity
  8
Layer_1
 62
7
100
AcDbLine
 10
14.040588
 20
264.102776
 30
0.0
 11
14.130258
 21
263.924444
 31
0.0
  0
LINE
  5
19e
100
AcDbEntity
  8
Layer_1
 62
7
100
AcDbLine
 10
14.130258
 20
263.924444
 30
0.0
 11
14.476274
 21
264.269629
 31
0.0
  0
LINE
  5
19f
100
AcDbEntity
  8
Layer_1
 62
7
100
AcDbLine
 10
14.476274
 20
264.269629
 30
0.0
 11
14.822291
 21
264.614815
 31
0.0
  0
LINE
  5
1a0
100
AcDbEntity
  8
Layer_1
 62
7
100
AcDbLine
 10
14.822291
 20
264.614815
 30
0.0
 11
14.822291
 21
265.106094
 31
0.0
  0
LINE
  5
1a1
100
AcDbEntity
  8
Layer_1
 62
7
100
AcDbLine
 10
14.822291
 20
265.106094
 30
0.0
 11
14.822291
 21
265.597372
 31
0.0
  0
LINE
  5
1a2
100
AcDbEntity
  8
Layer_1
 62
7
100
AcDbLine
 10
14.822291
 20
265.597372
 30
0.0
 11
14.537192
 21
265.617012
 31
0.0
  0
SPLINE
  5
1a3
100
AcDbEntity
  8
Layer_1
 62
7
100
AcDbSpline
 70
8
 71
3
 72
8
 73
4
 74
0
 40
0
 40
0
 40
0
 40
0
 40
1
 40
1
 40
1
 40
1
 10
14.537192
 20
265.617012
 30
0.0
 10
13.780318
 20
265.669142
 30
0.0
 10
13.200250
 20
265.912389
 30
0.0
 10
12.686284
 20
266.393180
 30
0.0
  0
SPLINE
  5
1a4
100
AcDbEntity
  8
Layer_1
 62
7
100
AcDbSpline
 70
8
 71
3
 72
8
 73
4
 74
0
 40
0
 40
0
 40
0
 40
0
 40
1
 40
1
 40
1
 40
1
 10
12.686284
 20
266.393180
 30
0.0
 10
12.272792
 20
266.779981
 30
0.0
 10
11.995837
 20
267.257782
 30
0.0
 10
11.850170
 20
267.835637
 30
0.0
  0
SPLINE
  5
1a5
100
AcDbEntity
  8
Layer_1
 62
7
100
AcDbSpline
 70
8
 71
3
 72
8
 73
4
 74
0
 40
0
 40
0
 40
0
 40
0
 40
1
 40
1
 40
1
 40
1
 10
11.850170
 20
267.835637
 30
0.0
 10
11.772460
 20
268.143906
 30
0.0
 10
11.778460
 20
268.905246
 30
0.0
 10
11.860970
 20
269.206579
 30
0.0
  0
SPLINE
  5
1a6
100
AcDbEntity
  8
Layer_1
 62
7
100
AcDbSpline
 70
8
 71
3
 72
8
 73
4
 74
0
 40
0
 40
0
 40
0
 40
0
 40
1
 40
1
 40
1
 40
1
 10
11.860970
 20
269.206579
 30
0.0
 10
12.149962
 20
270.261940
 30
0.0
 10
12.914898
 20
271.018361
 30
0.0
 10
13.973856
 20
271.295943
 30
0.0
  0
SPLINE
  5
1a7
100
AcDbEntity
  8
Layer_1
 62
7
100
AcDbSpline
 70
8
 71
3
 72
8
 73
4
 74
0
 40
0
 40
0
 40
0
 40
0
 40
1
 40
1
 40
1
 40
1
 10
13.973856
 20
271.295943
 30
0.0
 10
14.325319
 20
271.388073
 30
0.0
 10
14.971497
 20
271.389403
 30
0.0
 10
15.332659
 20
271.298743
 30
0.0
  0
SPLINE
  5
1a8
100
AcDbEntity
  8
Layer_1
 62
7
100
AcDbSpline
 70
8
 71
3
 72
8
 73
4
 74
0
 40
0
 40
0
 40
0
 40
0
 40
1
 40
1
 40
1
 40
1
 10
15.332659
 20
271.298743
 30
0.0
 10
15.793349
 20
271.183103
 30
0.0
 10
16.207894
 20
270.968550
 30
0.0
 10
16.573291
 20
270.656635
 30
0.0
  0
LINE
  5
1a9
100
AcDbEntity
  8
Layer_1
 62
7
100
AcDbLine
 10
16.573291
 20
270.656635
 30
0.0
 11
16.721277
 21
270.530310
 31
0.0
  0
LINE
  5
1aa
100
AcDbEntity
  8
Layer_1
 62
7
100
AcDbLine
 10
16.721277
 20
270.530310
 30
0.0
 11
16.970465
 21
270.778344
 31
0.0
  0
LINE
  5
1ab
100
AcDbEntity
  8
Layer_1
 62
7
100
AcDbLine
 10
16.970465
 20
270.778344
 30
0.0
 11
17.219654
 21
271.026378
 31
0.0
  0
LINE
  5
1ac
100
AcDbEntity
  8
Layer_1
 62
7
100
AcDbLine
 10
17.219654
 20
271.026378
 30
0.0
 11
17.226754
 21
274.930061
 31
0.0
  0
LINE
  5
1ad
100
AcDbEntity
  8
Layer_1
 62
7
100
AcDbLine
 10
17.226754
 20
274.930061
 30
0.0
 11
17.233854
 21
278.833744
 31
0.0
  0
LINE
  5
1ae
100
AcDbEntity
  8
Layer_1
 62
7
100
AcDbLine
 10
17.233854
 20
278.833744
 30
0.0
 11
17.463853
 21
278.841844
 31
0.0
  0
LINE
  5
1af
100
AcDbEntity
  8
Layer_1
 62
7
100
AcDbLine
 10
17.463853
 20
278.841844
 30
0.0
 11
17.693851
 21
278.849944
 31
0.0
  0
LINE
  5
1b0
100
AcDbEntity
  8
Layer_1
 62
7
100
AcDbLine
 10
17.693851
 20
278.849944
 30
0.0
 11
17.693851
 21
274.813806
 31
0.0
  0
LINE
  5
1b1
100
AcDbEntity
  8
Layer_1
 62
7
100
AcDbLine
 10
17.693851
 20
274.813806
 30
0.0
 11
17.693851
 21
270.777668
 31
0.0
  0
LINE
  5
1b2
100
AcDbEntity
  8
Layer_1
 62
7
100
AcDbLine
 10
17.693851
 20
270.777668
 30
0.0
 11
17.374167
 21
270.456645
 31
0.0
  0
LINE
  5
1b3
100
AcDbEntity
  8
Layer_1
 62
7
100
AcDbLine
 10
17.374167
 20
270.456645
 30
0.0
 11
17.054482
 21
270.135622
 31
0.0
  0
LINE
  5
1b4
100
AcDbEntity
  8
Layer_1
 62
7
100
AcDbLine
 10
17.054482
 20
270.135622
 30
0.0
 11
17.220147
 21
269.801079
 31
0.0
  0
SPLINE
  5
1b5
100
AcDbEntity
  8
Layer_1
 62
7
100
AcDbSpline
 70
8
 71
3
 72
8
 73
4
 74
0
 40
0
 40
0
 40
0
 40
0
 40
1
 40
1
 40
1
 40
1
 10
17.220147
 20
269.801079
 30
0.0
 10
17.471295
 20
269.293911
 30
0.0
 10
17.512962
 20
269.104305
 30
0.0
 10
17.511153
 20
268.476845
 30
0.0
  0
SPLINE
  5
1b6
100
AcDbEntity
  8
Layer_1
 62
7
100
AcDbSpline
 70
8
 71
3
 72
8
 73
4
 74
0
 40
0
 40
0
 40
0
 40
0
 40
1
 40
1
 40
1
 40
1
 10
17.511153
 20
268.476845
 30
0.0
 10
17.509753
 20
267.996203
 30
0.0
 10
17.504453
 20
267.944199
 30
0.0
 10
17.433393
 20
267.712960
 30
0.0
  0
SPLINE
  5
1b7
100
AcDbEntity
  8
Layer_1
 62
7
100
AcDbSpline
 70
8
 71
3
 72
8
 73
4
 74
0
 40
0
 40
0
 40
0
 40
0
 40
1
 40
1
 40
1
 40
1
 10
17.433393
 20
267.712960
 30
0.0
 10
17.271155
 20
267.185162
 30
0.0
 10
17.035371
 20
266.791657
 30
0.0
 10
16.668884
 20
266.437055
 30
0.0
  0
SPLINE
  5
1b8
100
AcDbEntity
  8
Layer_1
 62
7
100
AcDbSpline
 70
8
 71
3
 72
8
 73
4
 74
0
 40
0
 40
0
 40
0
 40
0
 40
1
 40
1
 40
1
 40
1
 10
16.668884
 20
266.437055
 30
0.0
 10
16.326362
 20
266.105642
 30
0.0
 10
15.897997
 20
265.850362
 30
0.0
 10
15.484470
 20
265.731215
 30
0.0
  0
LINE
  5
1b9
100
AcDbEntity
  8
Layer_1
 62
7
100
AcDbLine
 10
15.484470
 20
265.731215
 30
0.0
 11
15.324168
 21
265.685025
 31
0.0
  0
LINE
  5
1ba
100
AcDbEntity
  8
Layer_1
 62
7
100
AcDbLine
 10
15.324168
 20
265.685025
 30
0.0
 11
15.324168
 21
265.039093
 31
0.0
  0
LINE
  5
1bb
100
AcDbEntity
  8
Layer_1
 62
7
100
AcDbLine
 10
15.324168
 20
265.039093
 30
0.0
 11
15.324168
 21
264.393161
 31
0.0
  0
LINE
  5
1bc
100
AcDbEntity
  8
Layer_1
 62
7
100
AcDbLine
 10
15.324168
 20
264.393161
 30
0.0
 11
14.809720
 21
263.877140
 31
0.0
  0
LINE
  5
1bd
100
AcDbEntity
  8
Layer_1
 62
7
100
AcDbLine
 10
14.809720
 20
263.877140
 30
0.0
 11
14.295274
 21
263.361117
 31
0.0
  0
LINE
  5
1be
100
AcDbEntity
  8
Layer_1
 62
7
100
AcDbLine
 10
14.295274
 20
263.361117
 30
0.0
 11
14.324424
 21
263.138088
 31
0.0
  0
SPLINE
  5
1bf
100
AcDbEntity
  8
Layer_1
 62
7
100
AcDbSpline
 70
8
 71
3
 72
8
 73
4
 74
0
 40
0
 40
0
 40
0
 40
0
 40
1
 40
1
 40
1
 40
1
 10
14.324424
 20
263.138088
 30
0.0
 10
14.340464
 20
263.015422
 30
0.0
 10
14.345504
 20
262.791842
 30
0.0
 10
14.335644
 20
262.641242
 30
0.0
  0
SPLINE
  5
1c0
100
AcDbEntity
  8
Layer_1
 62
7
100
AcDbSpline
 70
8
 71
3
 72
8
 73
4
 74
0
 40
0
 40
0
 40
0
 40
0
 40
1
 40
1
 40
1
 40
1
 10
14.335644
 20
262.641242
 30
0.0
 10
14.250374
 20
261.339374
 30
0.0
 10
13.318003
 20
260.262186
 30
0.0
 10
12.048431
 20
259.998777
 30
0.0
  0
SPLINE
  5
1c1
100
AcDbEntity
  8
Layer_1
 62
7
100
AcDbSpline
 70
8
 71
3
 72
8
 73
4
 74
0
 40
0
 40
0
 40
0
 40
0
 40
1
 40
1
 40
1
 40
1
 10
12.048431
 20
259.998777
 30
0.0
 10
11.779708
 20
259.943027
 30
0.0
 10
11.225480
 20
259.931607
 30
0.0
 10
10.958172
 20
259.976317
 30
0.0
  0
LINE
  5
1c2
100
AcDbEntity
  8
Layer_1
 62
7
100
AcDbLine
 10
10.958172
 20
259.976317
 30
0.0
 11
10.958107
 21
259.976316
 31
0.0
  0
SPLINE
  5
1c3
100
AcDbEntity
  8
Layer_1
 62
7
100
AcDbSpline
 70
8
 71
3
 72
8
 73
4
 74
0
 40
0
 40
0
 40
0
 40
0
 40
1
 40
1
 40
1
 40
1
 10
12.047959
 20
260.071916
 30
0.0
 10
12.840448
 20
260.236740
 30
0.0
 10
13.557395
 20
260.782338
 30
0.0
 10
13.943389
 20
261.514340
 30
0.0
  0
SPLINE
  5
1c4
100
AcDbEntity
  8
Layer_1
 62
7
100
AcDbSpline
 70
8
 71
3
 72
8
 73
4
 74
0
 40
0
 40
0
 40
0
 40
0
 40
1
 40
1
 40
1
 40
1
 10
13.943389
 20
261.514340
 30
0.0
 10
14.181434
 20
261.965771
 30
0.0
 10
14.281825
 20
262.425893
 30
0.0
 10
14.256603
 20
262.949909
 30
0.0
  0
SPLINE
  5
1c5
100
AcDbEntity
  8
Layer_1
 62
7
100
AcDbSpline
 70
8
 71
3
 72
8
 73
4
 74
0
 40
0
 40
0
 40
0
 40
0
 40
1
 40
1
 40
1
 40
1
 10
14.256603
 20
262.949909
 30
0.0
 10
14.220353
 20
263.703087
 30
0.0
 10
13.930823
 20
264.332618
 30
0.0
 10
13.381565
 20
264.852537
 30
0.0
  0
SPLINE
  5
1c6
100
AcDbEntity
  8
Layer_1
 62
7
100
AcDbSpline
 70
8
 71
3
 72
8
 73
4
 74
0
 40
0
 40
0
 40
0
 40
0
 40
1
 40
1
 40
1
 40
1
 10
13.381565
 20
264.852537
 30
0.0
 10
12.846587
 20
265.358938
 30
0.0
 10
12.217267
 20
265.611070
 30
0.0
 10
11.476855
 20
265.615646
 30
0.0
  0
SPLINE
  5
1c7
100
AcDbEntity
  8
Layer_1
 62
7
100
AcDbSpline
 70
8
 71
3
 72
8
 73
4
 74
0
 40
0
 40
0
 40
0
 40
0
 40
1
 40
1
 40
1
 40
1
 10
11.476855
 20
265.615646
 30
0.0
 10
10.890521
 20
265.619246
 30
0.0
 10
10.390017
 20
265.471047
 30
0.0
 10
9.909938
 20
265.151614
 30
0.0
  0
SPLINE
  5
1c8
100
AcDbEntity
  8
Layer_1
 62
7
100
AcDbSpline
 70
8
 71
3
 72
8
 73
4
 74
0
 40
0
 40
0
 40
0
 40
0
 40
1
 40
1
 40
1
 40
1
 10
9.909938
 20
265.151614
 30
0.0
 10
9.472636
 20
264.860643
 30
0.0
 10
9.153423
 20
264.489970
 30
0.0
 10
8.925136
 20
264.008053
 30
0.0
  0
SPLINE
  5
1c9
100
AcDbEntity
  8
Layer_1
 62
7
100
AcDbSpline
 70
8
 71
3
 72
8
 73
4
 74
0
 40
0
 40
0
 40
0
 40
0
 40
1
 40
1
 40
1
 40
1
 10
8.925136
 20
264.008053
 30
0.0
 10
8.715982
 20
263.566523
 30
0.0
 10
8.678416
 20
263.385244
 30
0.0
 10
8.678416
 20
262.817476
 30
0.0
  0
SPLINE
  5
1ca
100
AcDbEntity
  8
Layer_1
 62
7
100
AcDbSpline
 70
8
 71
3
 72
8
 73
4
 74
0
 40
0
 40
0
 40
0
 40
0
 40
1
 40
1
 40
1
 40
1
 10
8.678416
 20
262.817476
 30
0.0
 10
8.678416
 20
262.401471
 30
0.0
 10
8.687436
 20
262.296746
 30
0.0
 10
8.739612
 20
262.106572
 30
0.0
  0
SPLINE
  5
1cb
100
AcDbEntity
  8
Layer_1
 62
7
100
AcDbSpline
 70
8
 71
3
 72
8
 73
4
 74
0
 40
0
 40
0
 40
0
 40
0
 40
1
 40
1
 40
1
 40
1
 10
8.739612
 20
262.106572
 30
0.0
 10
8.815258
 20
261.830880
 30
0.0
 10
9.013272
 20
261.414385
 30
0.0
 10
9.179345
 20
261.181654
 30
0.0
  0
SPLINE
  5
1cc
100
AcDbEntity
  8
Layer_1
 62
7
100
AcDbSpline
 70
8
 71
3
 72
8
 73
4
 74
0
 40
0
 40
0
 40
0
 40
0
 40
1
 40
1
 40
1
 40
1
 10
9.179345
 20
261.181654
 30
0.0
 10
9.613979
 20
260.572568
 30
0.0
 10
10.307436
 20
260.151520
 30
0.0
 10
11.074977
 20
260.030676
 30
0.0
  0
SPLINE
  5
1cd
100
AcDbEntity
  8
Layer_1
 62
7
100
AcDbSpline
 70
8
 71
3
 72
8
 73
4
 74
0
 40
0
 40
0
 40
0
 40
0
 40
1
 40
1
 40
1
 40
1
 10
11.074977
 20
260.030676
 30
0.0
 10
11.299207
 20
259.995366
 30
0.0
 10
11.777378
 20
260.015636
 30
0.0
 10
12.047959
 20
260.071916
 30
0.0
  0
LINE
  5
1ce
100
AcDbEntity
  8
Layer_1
 62
7
100
AcDbLine
 10
12.047959
 20
260.071916
 30
0.0
 11
12.047959
 21
260.071916
 31
0.0
  0
SPLINE
  5
1cf
100
AcDbEntity
  8
Layer_1
 62
7
100
AcDbSpline
 70
8
 71
3
 72
8
 73
4
 74
0
 40
0
 40
0
 40
0
 40
0
 40
1
 40
1
 40
1
 40
1
 10
10.011128
 20
263.710123
 30
0.0
 10
9.798345
 20
263.815451
 30
0.0
 10
9.683380
 20
264.061051
 30
0.0
 10
9.747115
 20
264.274139
 30
0.0
  0
SPLINE
  5
1d0
100
AcDbEntity
  8
Layer_1
 62
7
100
AcDbSpline
 70
8
 71
3
 72
8
 73
4
 74
0
 40
0
 40
0
 40
0
 40
0
 40
1
 40
1
 40
1
 40
1
 10
9.747115
 20
264.274139
 30
0.0
 10
9.797291
 20
264.441895
 30
0.0
 10
9.869938
 20
264.532348
 30
0.0
 10
10.008284
 20
264.599320
 30
0.0
  0
SPLINE
  5
1d1
100
AcDbEntity
  8
Layer_1
 62
7
100
AcDbSpline
 70
8
 71
3
 72
8
 73
4
 74
0
 40
0
 40
0
 40
0
 40
0
 40
1
 40
1
 40
1
 40
1
 10
10.008284
 20
264.599320
 30
0.0
 10
10.209876
 20
264.696910
 30
0.0
 10
10.411898
 20
264.669380
 30
0.0
 10
10.566319
 20
264.523270
 30
0.0
  0
SPLINE
  5
1d2
100
AcDbEntity
  8
Layer_1
 62
7
100
AcDbSpline
 70
8
 71
3
 72
8
 73
4
 74
0
 40
0
 40
0
 40
0
 40
0
 40
1
 40
1
 40
1
 40
1
 10
10.566319
 20
264.523270
 30
0.0
 10
10.682028
 20
264.413792
 30
0.0
 10
10.724132
 20
264.315713
 30
0.0
 10
10.724132
 20
264.155652
 30
0.0
  0
SPLINE
  5
1d3
100
AcDbEntity
  8
Layer_1
 62
7
100
AcDbSpline
 70
8
 71
3
 72
8
 73
4
 74
0
 40
0
 40
0
 40
0
 40
0
 40
1
 40
1
 40
1
 40
1
 10
10.724132
 20
264.155652
 30
0.0
 10
10.724132
 20
263.776405
 30
0.0
 10
10.349782
 20
263.542486
 30
0.0
 10
10.011128
 20
263.710120
 30
0.0
  0
LINE
  5
1d4
100
AcDbEntity
  8
Layer_1
 62
7
100
AcDbLine
 10
10.011128
 20
263.710120
 30
0.0
 11
10.011128
 21
263.710123
 31
0.0
  0
SPLINE
  5
1d5
100
AcDbEntity
  8
Layer_1
 62
7
100
AcDbSpline
 70
8
 71
3
 72
8
 73
4
 74
0
 40
0
 40
0
 40
0
 40
0
 40
1
 40
1
 40
1
 40
1
 10
10.416898
 20
263.772323
 30
0.0
 10
10.595982
 20
263.863833
 30
0.0
 10
10.654436
 20
263.958162
 30
0.0
 10
10.654436
 20
264.155654
 30
0.0
  0
SPLINE
  5
1d6
100
AcDbEntity
  8
Layer_1
 62
7
100
AcDbSpline
 70
8
 71
3
 72
8
 73
4
 74
0
 40
0
 40
0
 40
0
 40
0
 40
1
 40
1
 40
1
 40
1
 10
10.654436
 20
264.155654
 30
0.0
 10
10.654436
 20
264.331330
 30
0.0
 10
10.608736
 20
264.421106
 30
0.0
 10
10.464461
 20
264.528820
 30
0.0
  0
SPLINE
  5
1d7
100
AcDbEntity
  8
Layer_1
 62
7
100
AcDbSpline
 70
8
 71
3
 72
8
 73
4
 74
0
 40
0
 40
0
 40
0
 40
0
 40
1
 40
1
 40
1
 40
1
 10
10.464461
 20
264.528820
 30
0.0
 10
10.358076
 20
264.608250
 30
0.0
 10
10.115275
 20
264.608580
 30
0.0
 10
10.008376
 20
264.529470
 30
0.0
  0
SPLINE
  5
1d8
100
AcDbEntity
  8
Layer_1
 62
7
100
AcDbSpline
 70
8
 71
3
 72
8
 73
4
 74
0
 40
0
 40
0
 40
0
 40
0
 40
1
 40
1
 40
1
 40
1
 10
10.008376
 20
264.529470
 30
0.0
 10
9.758040
 20
264.344158
 30
0.0
 10
9.732542
 20
264.030856
 30
0.0
 10
9.951178
 20
263.826662
 30
0.0
  0
SPLINE
  5
1d9
100
AcDbEntity
  8
Layer_1
 62
7
100
AcDbSpline
 70
8
 71
3
 72
8
 73
4
 74
0
 40
0
 40
0
 40
0
 40
0
 40
1
 40
1
 40
1
 40
1
 10
9.951178
 20
263.826662
 30
0.0
 10
10.084509
 20
263.702138
 30
0.0
 10
10.243269
 20
263.683621
 30
0.0
 10
10.416898
 20
263.772342
 30
0.0
  0
LINE
  5
1da
100
AcDbEntity
  8
Layer_1
 62
7
100
AcDbLine
 10
10.416898
 20
263.772342
 30
0.0
 11
10.416898
 21
263.772323
 31
0.0
  0
LINE
  5
1db
100
AcDbEntity
  8
Layer_1
 62
7
100
AcDbLine
 10
15.240468
 20
265.049655
 30
0.0
 11
15.240468
 21
265.679406
 31
0.0
  0
LINE
  5
1dc
100
AcDbEntity
  8
Layer_1
 62
7
100
AcDbLine
 10
15.240468
 20
265.679406
 30
0.0
 11
15.073197
 21
265.652466
 31
0.0
  0
LINE
  5
1dd
100
AcDbEntity
  8
Layer_1
 62
7
100
AcDbLine
 10
15.073197
 20
265.652466
 30
0.0
 11
14.905925
 21
265.625526
 31
0.0
  0
LINE
  5
1de
100
AcDbEntity
  8
Layer_1
 62
7
100
AcDbLine
 10
14.905925
 20
265.625526
 30
0.0
 11
14.905925
 21
265.093069
 31
0.0
  0
LINE
  5
1df
100
AcDbEntity
  8
Layer_1
 62
7
100
AcDbLine
 10
14.905925
 20
265.093069
 30
0.0
 11
14.905925
 21
264.560612
 31
0.0
  0
LINE
  5
1e0
100
AcDbEntity
  8
Layer_1
 62
7
100
AcDbLine
 10
14.905925
 20
264.560612
 30
0.0
 11
14.533667
 21
264.183890
 31
0.0
  0
LINE
  5
1e1
100
AcDbEntity
  8
Layer_1
 62
7
100
AcDbLine
 10
14.533667
 20
264.183890
 30
0.0
 11
14.161410
 21
263.807167
 31
0.0
  0
LINE
  5
1e2
100
AcDbEntity
  8
Layer_1
 62
7
100
AcDbLine
 10
14.161410
 20
263.807167
 30
0.0
 11
14.216460
 21
263.629650
 31
0.0
  0
LINE
  5
1e3
100
AcDbEntity
  8
Layer_1
 62
7
100
AcDbLine
 10
14.216460
 20
263.629650
 30
0.0
 11
14.271510
 21
263.452132
 31
0.0
  0
LINE
  5
1e4
100
AcDbEntity
  8
Layer_1
 62
7
100
AcDbLine
 10
14.271510
 20
263.452132
 30
0.0
 11
14.755987
 21
263.936016
 31
0.0
  0
LINE
  5
1e5
100
AcDbEntity
  8
Layer_1
 62
7
100
AcDbLine
 10
14.755987
 20
263.936016
 30
0.0
 11
15.240465
 21
264.419899
 31
0.0
  0
LINE
  5
1e6
100
AcDbEntity
  8
Layer_1
 62
7
100
AcDbLine
 10
15.240465
 20
264.419899
 30
0.0
 11
15.240468
 21
265.049655
 31
0.0
  0
SPLINE
  5
1e7
100
AcDbEntity
  8
Layer_1
 62
7
100
AcDbSpline
 70
8
 71
3
 72
8
 73
4
 74
0
 40
0
 40
0
 40
0
 40
0
 40
1
 40
1
 40
1
 40
1
 10
15.328998
 20
265.768542
 30
0.0
 10
15.830415
 20
265.900903
 30
0.0
 10
16.246235
 20
266.135387
 30
0.0
 10
16.616083
 20
266.494340
 30
0.0
  0
SPLINE
  5
1e8
100
AcDbEntity
  8
Layer_1
 62
7
100
AcDbSpline
 70
8
 71
3
 72
8
 73
4
 74
0
 40
0
 40
0
 40
0
 40
0
 40
1
 40
1
 40
1
 40
1
 10
16.616083
 20
266.494340
 30
0.0
 10
17.268169
 20
267.127215
 30
0.0
 10
17.576095
 20
268.046302
 30
0.0
 10
17.430369
 20
268.924790
 30
0.0
  0
SPLINE
  5
1e9
100
AcDbEntity
  8
Layer_1
 62
7
100
AcDbSpline
 70
8
 71
3
 72
8
 73
4
 74
0
 40
0
 40
0
 40
0
 40
0
 40
1
 40
1
 40
1
 40
1
 10
17.430369
 20
268.924790
 30
0.0
 10
17.248688
 20
270.020029
 30
0.0
 10
16.496169
 20
270.872090
 30
0.0
 10
15.421683
 20
271.199178
 30
0.0
  0
SPLINE
  5
1ea
100
AcDbEntity
  8
Layer_1
 62
7
100
AcDbSpline
 70
8
 71
3
 72
8
 73
4
 74
0
 40
0
 40
0
 40
0
 40
0
 40
1
 40
1
 40
1
 40
1
 10
15.421683
 20
271.199178
 30
0.0
 10
15.188370
 20
271.270198
 30
0.0
 10
15.135586
 20
271.275588
 30
0.0
 10
14.668960
 20
271.276008
 30
0.0
  0
SPLINE
  5
1eb
100
AcDbEntity
  8
Layer_1
 62
7
100
AcDbSpline
 70
8
 71
3
 72
8
 73
4
 74
0
 40
0
 40
0
 40
0
 40
0
 40
1
 40
1
 40
1
 40
1
 10
14.668960
 20
271.276008
 30
0.0
 10
14.083648
 20
271.276558
 30
0.0
 10
13.898772
 20
271.238398
 30
0.0
 10
13.457796
 20
271.026161
 30
0.0
  0
SPLINE
  5
1ec
100
AcDbEntity
  8
Layer_1
 62
7
100
AcDbSpline
 70
8
 71
3
 72
8
 73
4
 74
0
 40
0
 40
0
 40
0
 40
0
 40
1
 40
1
 40
1
 40
1
 10
13.457796
 20
271.026161
 30
0.0
 10
12.968512
 20
270.790672
 30
0.0
 10
12.604949
 20
270.474071
 30
0.0
 10
12.310415
 20
270.026988
 30
0.0
  0
SPLINE
  5
1ed
100
AcDbEntity
  8
Layer_1
 62
7
100
AcDbSpline
 70
8
 71
3
 72
8
 73
4
 74
0
 40
0
 40
0
 40
0
 40
0
 40
1
 40
1
 40
1
 40
1
 10
12.310415
 20
270.026988
 30
0.0
 10
11.756235
 20
269.185783
 30
0.0
 10
11.700203
 20
268.115250
 30
0.0
 10
12.163410
 20
267.218396
 30
0.0
  0
SPLINE
  5
1ee
100
AcDbEntity
  8
Layer_1
 62
7
100
AcDbSpline
 70
8
 71
3
 72
8
 73
4
 74
0
 40
0
 40
0
 40
0
 40
0
 40
1
 40
1
 40
1
 40
1
 10
12.163410
 20
267.218396
 30
0.0
 10
12.562545
 20
266.445597
 30
0.0
 10
13.301538
 20
265.891009
 30
0.0
 10
14.144794
 20
265.731440
 30
0.0
  0
SPLINE
  5
1ef
100
AcDbEntity
  8
Layer_1
 62
7
100
AcDbSpline
 70
8
 71
3
 72
8
 73
4
 74
0
 40
0
 40
0
 40
0
 40
0
 40
1
 40
1
 40
1
 40
1
 10
14.144794
 20
265.731440
 30
0.0
 10
14.447068
 20
265.674240
 30
0.0
 10
15.042436
 20
265.692890
 30
0.0
 10
15.328998
 20
265.768540
 30
0.0
  0
LINE
  5
1f0
100
AcDbEntity
  8
Layer_1
 62
7
100
AcDbLine
 10
15.328998
 20
265.768540
 30
0.0
 11
15.328998
 21
265.768542
 31
0.0
  0
SPLINE
  5
1f1
100
AcDbEntity
  8
Layer_1
 62
7
100
AcDbSpline
 70
8
 71
3
 72
8
 73
4
 74
0
 40
0
 40
0
 40
0
 40
0
 40
1
 40
1
 40
1
 40
1
 10
13.233226
 20
269.372396
 30
0.0
 10
13.070275
 20
269.437376
 30
0.0
 10
12.926547
 20
269.653229
 30
0.0
 10
12.926547
 20
269.832978
 30
0.0
  0
SPLINE
  5
1f2
100
AcDbEntity
  8
Layer_1
 62
7
100
AcDbSpline
 70
8
 71
3
 72
8
 73
4
 74
0
 40
0
 40
0
 40
0
 40
0
 40
1
 40
1
 40
1
 40
1
 10
12.926547
 20
269.832978
 30
0.0
 10
12.926547
 20
270.224628
 30
0.0
 10
13.377059
 20
270.468883
 30
0.0
 10
13.702366
 20
270.253604
 30
0.0
  0
SPLINE
  5
1f3
100
AcDbEntity
  8
Layer_1
 62
7
100
AcDbSpline
 70
8
 71
3
 72
8
 73
4
 74
0
 40
0
 40
0
 40
0
 40
0
 40
1
 40
1
 40
1
 40
1
 10
13.702366
 20
270.253604
 30
0.0
 10
14.033198
 20
270.034670
 30
0.0
 10
13.992539
 20
269.533990
 30
0.0
 10
13.631376
 20
269.379460
 30
0.0
  0
SPLINE
  5
1f4
100
AcDbEntity
  8
Layer_1
 62
7
100
AcDbSpline
 70
8
 71
3
 72
8
 73
4
 74
0
 40
0
 40
0
 40
0
 40
0
 40
1
 40
1
 40
1
 40
1
 10
13.631376
 20
269.379460
 30
0.0
 10
13.528193
 20
269.335310
 30
0.0
 10
13.334831
 20
269.331880
 30
0.0
 10
13.233225
 20
269.372360
 30
0.0
  0
LINE
  5
1f5
100
AcDbEntity
  8
Layer_1
 62
7
100
AcDbLine
 10
13.233225
 20
269.372360
 30
0.0
 11
13.233226
 21
269.372396
 31
0.0
  0
SPLINE
  5
1f6
100
AcDbEntity
  8
Layer_1
 62
7
100
AcDbSpline
 70
8
 71
3
 72
8
 73
4
 74
0
 40
0
 40
0
 40
0
 40
0
 40
1
 40
1
 40
1
 40
1
 10
13.674376
 20
269.471236
 30
0.0
 10
13.762286
 20
269.535246
 30
0.0
 10
13.874419
 20
269.741956
 30
0.0
 10
13.874419
 20
269.839994
 30
0.0
  0
SPLINE
  5
1f7
100
AcDbEntity
  8
Layer_1
 62
7
100
AcDbSpline
 70
8
 71
3
 72
8
 73
4
 74
0
 40
0
 40
0
 40
0
 40
0
 40
1
 40
1
 40
1
 40
1
 10
13.874419
 20
269.839994
 30
0.0
 10
13.874419
 20
269.955226
 30
0.0
 10
13.765572
 20
270.143358
 30
0.0
 10
13.661792
 20
270.207497
 30
0.0
  0
SPLINE
  5
1f8
100
AcDbEntity
  8
Layer_1
 62
7
100
AcDbSpline
 70
8
 71
3
 72
8
 73
4
 74
0
 40
0
 40
0
 40
0
 40
0
 40
1
 40
1
 40
1
 40
1
 10
13.661792
 20
270.207497
 30
0.0
 10
13.582712
 20
270.256367
 30
0.0
 10
13.533739
 20
270.265307
 30
0.0
 10
13.398613
 20
270.255537
 30
0.0
  0
SPLINE
  5
1f9
100
AcDbEntity
  8
Layer_1
 62
7
100
AcDbSpline
 70
8
 71
3
 72
8
 73
4
 74
0
 40
0
 40
0
 40
0
 40
0
 40
1
 40
1
 40
1
 40
1
 10
13.398613
 20
270.255537
 30
0.0
 10
13.255777
 20
270.245197
 30
0.0
 10
13.218932
 20
270.230287
 30
0.0
 10
13.134788
 20
270.148733
 30
0.0
  0
SPLINE
  5
1fa
100
AcDbEntity
  8
Layer_1
 62
7
100
AcDbSpline
 70
8
 71
3
 72
8
 73
4
 74
0
 40
0
 40
0
 40
0
 40
0
 40
1
 40
1
 40
1
 40
1
 10
13.134788
 20
270.148733
 30
0.0
 10
12.833771
 20
269.856976
 30
0.0
 10
13.049568
 20
269.371961
 30
0.0
 10
13.465287
 20
269.405935
 30
0.0
  0
SPLINE
  5
1fb
100
AcDbEntity
  8
Layer_1
 62
7
100
AcDbSpline
 70
8
 71
3
 72
8
 73
4
 74
0
 40
0
 40
0
 40
0
 40
0
 40
1
 40
1
 40
1
 40
1
 10
13.465287
 20
269.405935
 30
0.0
 10
13.539267
 20
269.412035
 30
0.0
 10
13.633352
 20
269.441365
 30
0.0
 10
13.674376
 20
269.471235
 30
0.0
  0
LINE
  5
1fc
100
AcDbEntity
  8
Layer_1
 62
7
100
AcDbLine
 10
13.674376
 20
269.471235
 30
0.0
 11
13.674376
 21
269.471236
 31
0.0
  0
LINE
  5
1fd
100
AcDbEntity
  8
Layer_1
 62
7
100
AcDbLine
 10
17.638032
 20
274.811816
 30
0.0
 11
17.638032
 21
278.764046
 31
0.0
  0
LINE
  5
1fe
100
AcDbEntity
  8
Layer_1
 62
7
100
AcDbLine
 10
17.638032
 20
278.764046
 30
0.0
 11
17.470761
 21
278.764046
 31
0.0
  0
LINE
  5
1ff
100
AcDbEntity
  8
Layer_1
 62
7
100
AcDbLine
 10
17.470761
 20
278.764046
 30
0.0
 11
17.303489
 21
278.764046
 31
0.0
  0
LINE
  5
200
100
AcDbEntity
  8
Layer_1
 62
7
100
AcDbLine
 10
17.303489
 20
278.764046
 30
0.0
 11
17.303489
 21
274.882448
 31
0.0
  0
LINE
  5
201
100
AcDbEntity
  8
Layer_1
 62
7
100
AcDbLine
 10
17.303489
 20
274.882448
 30
0.0
 11
17.303489
 21
271.000849
 31
0.0
  0
LINE
  5
202
100
AcDbEntity
  8
Layer_1
 62
7
100
AcDbLine
 10
17.303489
 20
271.000849
 30
0.0
 11
17.034709
 21
270.731057
 31
0.0
  0
LINE
  5
203
100
AcDbEntity
  8
Layer_1
 62
7
100
AcDbLine
 10
17.034709
 20
270.731057
 30
0.0
 11
16.765929
 21
270.461264
 31
0.0
  0
LINE
  5
204
100
AcDbEntity
  8
Layer_1
 62
7
100
AcDbLine
 10
16.765929
 20
270.461264
 30
0.0
 11
16.872232
 21
270.331535
 31
0.0
  0
LINE
  5
205
100
AcDbEntity
  8
Layer_1
 62
7
100
AcDbLine
 10
16.872232
 20
270.331535
 30
0.0
 11
16.978534
 21
270.201806
 31
0.0
  0
LINE
  5
206
100
AcDbEntity
  8
Layer_1
 62
7
100
AcDbLine
 10
16.978534
 20
270.201806
 30
0.0
 11
17.308283
 21
270.530696
 31
0.0
  0
LINE
  5
207
100
AcDbEntity
  8
Layer_1
 62
7
100
AcDbLine
 10
17.308283
 20
270.530696
 30
0.0
 11
17.638032
 21
270.859587
 31
0.0
  0
LINE
  5
208
100
AcDbEntity
  8
Layer_1
 62
7
100
AcDbLine
 10
17.638032
 20
270.859587
 30
0.0
 11
17.638032
 21
274.811816
 31
0.0
  0
SPLINE
  5
209
100
AcDbEntity
  8
Layer_1
 62
7
100
AcDbSpline
 70
8
 71
3
 72
8
 73
4
 74
0
 40
0
 40
0
 40
0
 40
0
 40
1
 40
1
 40
1
 40
1
 10
25.081623
 20
259.998839
 30
0.0
 10
24.488536
 20
260.130062
 30
0.0
 10
24.023664
 20
260.389759
 30
0.0
 10
23.612333
 20
260.819643
 30
0.0
  0
SPLINE
  5
20a
100
AcDbEntity
  8
Layer_1
 62
7
100
AcDbSpline
 70
8
 71
3
 72
8
 73
4
 74
0
 40
0
 40
0
 40
0
 40
0
 40
1
 40
1
 40
1
 40
1
 10
23.612333
 20
260.819643
 30
0.0
 10
23.360675
 20
261.082652
 30
0.0
 10
23.228765
 20
261.272923
 30
0.0
 10
23.073641
 20
261.596672
 30
0.0
  0
SPLINE
  5
20b
100
AcDbEntity
  8
Layer_1
 62
7
100
AcDbSpline
 70
8
 71
3
 72
8
 73
4
 74
0
 40
0
 40
0
 40
0
 40
0
 40
1
 40
1
 40
1
 40
1
 10
23.073641
 20
261.596672
 30
0.0
 10
22.860173
 20
262.042179
 30
0.0
 10
22.757634
 20
262.664264
 30
0.0
 10
22.819567
 20
263.138083
 30
0.0
  0
LINE
  5
20c
100
AcDbEntity
  8
Layer_1
 62
7
100
AcDbLine
 10
22.819567
 20
263.138083
 30
0.0
 11
22.848717
 21
263.361112
 31
0.0
  0
LINE
  5
20d
100
AcDbEntity
  8
Layer_1
 62
7
100
AcDbLine
 10
22.848717
 20
263.361112
 30
0.0
 11
22.334713
 21
263.876866
 31
0.0
  0
LINE
  5
20e
100
AcDbEntity
  8
Layer_1
 62
7
100
AcDbLine
 10
22.334713
 20
263.876866
 30
0.0
 11
21.820710
 21
264.392620
 31
0.0
  0
LINE
  5
20f
100
AcDbEntity
  8
Layer_1
 62
7
100
AcDbLine
 10
21.820710
 20
264.392620
 30
0.0
 11
21.813310
 21
265.042321
 31
0.0
  0
LINE
  5
210
100
AcDbEntity
  8
Layer_1
 62
7
100
AcDbLine
 10
21.813310
 20
265.042321
 30
0.0
 11
21.805910
 21
265.692021
 31
0.0
  0
LINE
  5
211
100
AcDbEntity
  8
Layer_1
 62
7
100
AcDbLine
 10
21.805910
 20
265.692021
 30
0.0
 11
21.602156
 21
265.760621
 31
0.0
  0
SPLINE
  5
212
100
AcDbEntity
  8
Layer_1
 62
7
100
AcDbSpline
 70
8
 71
3
 72
8
 73
4
 74
0
 40
0
 40
0
 40
0
 40
0
 40
1
 40
1
 40
1
 40
1
 10
21.602156
 20
265.760621
 30
0.0
 10
20.834338
 20
266.019110
 30
0.0
 10
20.240465
 20
266.549915
 30
0.0
 10
19.896370
 20
267.285228
 30
0.0
  0
SPLINE
  5
213
100
AcDbEntity
  8
Layer_1
 62
7
100
AcDbSpline
 70
8
 71
3
 72
8
 73
4
 74
0
 40
0
 40
0
 40
0
 40
0
 40
1
 40
1
 40
1
 40
1
 10
19.896370
 20
267.285228
 30
0.0
 10
19.503290
 20
268.125221
 30
0.0
 10
19.555236
 20
269.181106
 30
0.0
 10
20.028168
 20
269.964189
 30
0.0
  0
LINE
  5
214
100
AcDbEntity
  8
Layer_1
 62
7
100
AcDbLine
 10
20.028168
 20
269.964189
 30
0.0
 11
20.126678
 21
270.127305
 31
0.0
  0
LINE
  5
215
100
AcDbEntity
  8
Layer_1
 62
7
100
AcDbLine
 10
20.126678
 20
270.127305
 30
0.0
 11
19.802346
 21
270.452483
 31
0.0
  0
LINE
  5
216
100
AcDbEntity
  8
Layer_1
 62
7
100
AcDbLine
 10
19.802346
 20
270.452483
 30
0.0
 11
19.478015
 21
270.777663
 31
0.0
  0
LINE
  5
217
100
AcDbEntity
  8
Layer_1
 62
7
100
AcDbLine
 10
19.478015
 20
270.777663
 30
0.0
 11
19.478015
 21
274.813801
 31
0.0
  0
LINE
  5
218
100
AcDbEntity
  8
Layer_1
 62
7
100
AcDbLine
 10
19.478015
 20
274.813801
 30
0.0
 11
19.478015
 21
278.849940
 31
0.0
  0
LINE
  5
219
100
AcDbEntity
  8
Layer_1
 62
7
100
AcDbLine
 10
19.478015
 20
278.849940
 30
0.0
 11
19.708014
 21
278.841840
 31
0.0
  0
LINE
  5
21a
100
AcDbEntity
  8
Layer_1
 62
7
100
AcDbLine
 10
19.708014
 20
278.841840
 30
0.0
 11
19.938012
 21
278.833740
 31
0.0
  0
LINE
  5
21b
100
AcDbEntity
  8
Layer_1
 62
7
100
AcDbLine
 10
19.938012
 20
278.833740
 30
0.0
 11
19.945112
 21
274.930056
 31
0.0
  0
LINE
  5
21c
100
AcDbEntity
  8
Layer_1
 62
7
100
AcDbLine
 10
19.945112
 20
274.930056
 30
0.0
 11
19.952212
 21
271.026373
 31
0.0
  0
LINE
  5
21d
100
AcDbEntity
  8
Layer_1
 62
7
100
AcDbLine
 10
19.952212
 20
271.026373
 30
0.0
 11
20.198946
 21
270.780782
 31
0.0
  0
LINE
  5
21e
100
AcDbEntity
  8
Layer_1
 62
7
100
AcDbLine
 10
20.198946
 20
270.780782
 30
0.0
 11
20.445679
 21
270.535191
 31
0.0
  0
LINE
  5
21f
100
AcDbEntity
  8
Layer_1
 62
7
100
AcDbLine
 10
20.445679
 20
270.535191
 30
0.0
 11
20.692272
 21
270.733040
 31
0.0
  0
SPLINE
  5
220
100
AcDbEntity
  8
Layer_1
 62
7
100
AcDbSpline
 70
8
 71
3
 72
8
 73
4
 74
0
 40
0
 40
0
 40
0
 40
0
 40
1
 40
1
 40
1
 40
1
 10
20.692272
 20
270.733040
 30
0.0
 10
21.470670
 20
271.357575
 30
0.0
 10
22.498315
 20
271.536707
 30
0.0
 10
23.450785
 20
271.213885
 30
0.0
  0
SPLINE
  5
221
100
AcDbEntity
  8
Layer_1
 62
7
100
AcDbSpline
 70
8
 71
3
 72
8
 73
4
 74
0
 40
0
 40
0
 40
0
 40
0
 40
1
 40
1
 40
1
 40
1
 10
23.450785
 20
271.213885
 30
0.0
 10
23.862152
 20
271.074460
 30
0.0
 10
24.168849
 20
270.888359
 30
0.0
 10
24.488469
 20
270.584230
 30
0.0
  0
SPLINE
  5
222
100
AcDbEntity
  8
Layer_1
 62
7
100
AcDbSpline
 70
8
 71
3
 72
8
 73
4
 74
0
 40
0
 40
0
 40
0
 40
0
 40
1
 40
1
 40
1
 40
1
 10
24.488469
 20
270.584230
 30
0.0
 10
24.933782
 20
270.160504
 30
0.0
 10
25.209816
 20
269.664750
 30
0.0
 10
25.330688
 20
269.071627
 30
0.0
  0
SPLINE
  5
223
100
AcDbEntity
  8
Layer_1
 62
7
100
AcDbSpline
 70
8
 71
3
 72
8
 73
4
 74
0
 40
0
 40
0
 40
0
 40
0
 40
1
 40
1
 40
1
 40
1
 10
25.330688
 20
269.071627
 30
0.0
 10
25.614862
 20
267.677165
 30
0.0
 10
24.842542
 20
266.281325
 30
0.0
 10
23.519687
 20
265.798542
 30
0.0
  0
SPLINE
  5
224
100
AcDbEntity
  8
Layer_1
 62
7
100
AcDbSpline
 70
8
 71
3
 72
8
 73
4
 74
0
 40
0
 40
0
 40
0
 40
0
 40
1
 40
1
 40
1
 40
1
 10
23.519687
 20
265.798542
 30
0.0
 10
23.215547
 20
265.687545
 30
0.0
 10
22.978149
 20
265.639565
 30
0.0
 10
22.617834
 20
265.616270
 30
0.0
  0
LINE
  5
225
100
AcDbEntity
  8
Layer_1
 62
7
100
AcDbLine
 10
22.617834
 20
265.616270
 30
0.0
 11
22.321702
 21
265.597130
 31
0.0
  0
LINE
  5
226
100
AcDbEntity
  8
Layer_1
 62
7
100
AcDbLine
 10
22.321702
 20
265.597130
 30
0.0
 11
22.321702
 21
265.105972
 31
0.0
  0
LINE
  5
227
100
AcDbEntity
  8
Layer_1
 62
7
100
AcDbLine
 10
22.321702
 20
265.105972
 30
0.0
 11
22.321702
 21
264.614815
 31
0.0
  0
LINE
  5
228
100
AcDbEntity
  8
Layer_1
 62
7
100
AcDbLine
 10
22.321702
 20
264.614815
 30
0.0
 11
22.666417
 21
264.270926
 31
0.0
  0
LINE
  5
229
100
AcDbEntity
  8
Layer_1
 62
7
100
AcDbLine
 10
22.666417
 20
264.270926
 30
0.0
 11
23.011134
 21
263.927038
 31
0.0
  0
LINE
  5
22a
100
AcDbEntity
  8
Layer_1
 62
7
100
AcDbLine
 10
23.011134
 20
263.927038
 30
0.0
 11
23.138580
 21
264.166611
 31
0.0
  0
SPLINE
  5
22b
100
AcDbEntity
  8
Layer_1
 62
7
100
AcDbSpline
 70
8
 71
3
 72
8
 73
4
 74
0
 40
0
 40
0
 40
0
 40
0
 40
1
 40
1
 40
1
 40
1
 10
23.138580
 20
264.166611
 30
0.0
 10
23.547032
 20
264.934421
 30
0.0
 10
24.251767
 20
265.460958
 30
0.0
 10
25.109563
 20
265.639214
 30
0.0
  0
SPLINE
  5
22c
100
AcDbEntity
  8
Layer_1
 62
7
100
AcDbSpline
 70
8
 71
3
 72
8
 73
4
 74
0
 40
0
 40
0
 40
0
 40
0
 40
1
 40
1
 40
1
 40
1
 10
25.109563
 20
265.639214
 30
0.0
 10
25.456819
 20
265.711374
 30
0.0
 10
26.071093
 20
265.697564
 30
0.0
 10
26.396870
 20
265.610264
 30
0.0
  0
SPLINE
  5
22d
100
AcDbEntity
  8
Layer_1
 62
7
100
AcDbSpline
 70
8
 71
3
 72
8
 73
4
 74
0
 40
0
 40
0
 40
0
 40
0
 40
1
 40
1
 40
1
 40
1
 10
26.396870
 20
265.610264
 30
0.0
 10
27.858136
 20
265.218697
 30
0.0
 10
28.764681
 20
263.831603
 30
0.0
 10
28.525027
 20
262.353993
 30
0.0
  0
SPLINE
  5
22e
100
AcDbEntity
  8
Layer_1
 62
7
100
AcDbSpline
 70
8
 71
3
 72
8
 73
4
 74
0
 40
0
 40
0
 40
0
 40
0
 40
1
 40
1
 40
1
 40
1
 10
28.525027
 20
262.353993
 30
0.0
 10
28.344313
 20
261.239783
 30
0.0
 10
27.565731
 20
260.367167
 30
0.0
 10
26.461676
 20
260.041442
 30
0.0
  0
SPLINE
  5
22f
100
AcDbEntity
  8
Layer_1
 62
7
100
AcDbSpline
 70
8
 71
3
 72
8
 73
4
 74
0
 40
0
 40
0
 40
0
 40
0
 40
1
 40
1
 40
1
 40
1
 10
26.461676
 20
260.041442
 30
0.0
 10
26.116740
 20
259.939677
 30
0.0
 10
25.443070
 20
259.918878
 30
0.0
 10
25.081685
 20
259.998832
 30
0.0
  0
LINE
  5
230
100
AcDbEntity
  8
Layer_1
 62
7
100
AcDbLine
 10
25.081685
 20
259.998832
 30
0.0
 11
25.081623
 21
259.998839
 31
0.0
  0
SPLINE
  5
231
100
AcDbEntity
  8
Layer_1
 62
7
100
AcDbSpline
 70
8
 71
3
 72
8
 73
4
 74
0
 40
0
 40
0
 40
0
 40
0
 40
1
 40
1
 40
1
 40
1
 10
26.370334
 20
260.096679
 30
0.0
 10
27.002946
 20
260.257155
 30
0.0
 10
27.590742
 20
260.657765
 30
0.0
 10
27.966776
 20
261.184730
 30
0.0
  0
SPLINE
  5
232
100
AcDbEntity
  8
Layer_1
 62
7
100
AcDbSpline
 70
8
 71
3
 72
8
 73
4
 74
0
 40
0
 40
0
 40
0
 40
0
 40
1
 40
1
 40
1
 40
1
 10
27.966776
 20
261.184730
 30
0.0
 10
28.129640
 20
261.412964
 30
0.0
 10
28.327692
 20
261.831782
 30
0.0
 10
28.404624
 20
262.110643
 30
0.0
  0
SPLINE
  5
233
100
AcDbEntity
  8
Layer_1
 62
7
100
AcDbSpline
 70
8
 71
3
 72
8
 73
4
 74
0
 40
0
 40
0
 40
0
 40
0
 40
1
 40
1
 40
1
 40
1
 10
28.404624
 20
262.110643
 30
0.0
 10
28.455114
 20
262.293640
 30
0.0
 10
28.465344
 20
262.407455
 30
0.0
 10
28.466954
 20
262.803543
 30
0.0
  0
SPLINE
  5
234
100
AcDbEntity
  8
Layer_1
 62
7
100
AcDbSpline
 70
8
 71
3
 72
8
 73
4
 74
0
 40
0
 40
0
 40
0
 40
0
 40
1
 40
1
 40
1
 40
1
 10
28.466954
 20
262.803543
 30
0.0
 10
28.469254
 20
263.357272
 30
0.0
 10
28.424754
 20
263.571847
 30
0.0
 10
28.216617
 20
264.012124
 30
0.0
  0
SPLINE
  5
235
100
AcDbEntity
  8
Layer_1
 62
7
100
AcDbSpline
 70
8
 71
3
 72
8
 73
4
 74
0
 40
0
 40
0
 40
0
 40
0
 40
1
 40
1
 40
1
 40
1
 10
28.216617
 20
264.012124
 30
0.0
 10
27.993003
 20
264.485139
 30
0.0
 10
27.666247
 20
264.864007
 30
0.0
 10
27.233672
 20
265.151833
 30
0.0
  0
SPLINE
  5
236
100
AcDbEntity
  8
Layer_1
 62
7
100
AcDbSpline
 70
8
 71
3
 72
8
 73
4
 74
0
 40
0
 40
0
 40
0
 40
0
 40
1
 40
1
 40
1
 40
1
 10
27.233672
 20
265.151833
 30
0.0
 10
26.101685
 20
265.905031
 30
0.0
 10
24.608699
 20
265.742515
 30
0.0
 10
23.672538
 20
264.764193
 30
0.0
  0
SPLINE
  5
237
100
AcDbEntity
  8
Layer_1
 62
7
100
AcDbSpline
 70
8
 71
3
 72
8
 73
4
 74
0
 40
0
 40
0
 40
0
 40
0
 40
1
 40
1
 40
1
 40
1
 10
23.672538
 20
264.764193
 30
0.0
 10
23.166634
 20
264.235506
 30
0.0
 10
22.921998
 20
263.670258
 30
0.0
 10
22.887327
 20
262.949915
 30
0.0
  0
SPLINE
  5
238
100
AcDbEntity
  8
Layer_1
 62
7
100
AcDbSpline
 70
8
 71
3
 72
8
 73
4
 74
0
 40
0
 40
0
 40
0
 40
0
 40
1
 40
1
 40
1
 40
1
 10
22.887327
 20
262.949915
 30
0.0
 10
22.846547
 20
262.102612
 30
0.0
 10
23.147199
 20
261.363914
 30
0.0
 10
23.775771
 20
260.767042
 30
0.0
  0
SPLINE
  5
239
100
AcDbEntity
  8
Layer_1
 62
7
100
AcDbSpline
 70
8
 71
3
 72
8
 73
4
 74
0
 40
0
 40
0
 40
0
 40
0
 40
1
 40
1
 40
1
 40
1
 10
23.775771
 20
260.767042
 30
0.0
 10
24.212082
 20
260.352734
 30
0.0
 10
24.716935
 20
260.120440
 30
0.0
 10
25.402228
 20
260.018668
 30
0.0
  0
SPLINE
  5
23a
100
AcDbEntity
  8
Layer_1
 62
7
100
AcDbSpline
 70
8
 71
3
 72
8
 73
4
 74
0
 40
0
 40
0
 40
0
 40
0
 40
1
 40
1
 40
1
 40
1
 10
25.402228
 20
260.018668
 30
0.0
 10
25.597215
 20
259.989708
 30
0.0
 10
26.112267
 20
260.031208
 30
0.0
 10
26.370335
 20
260.096678
 30
0.0
  0
LINE
  5
23b
100
AcDbEntity
  8
Layer_1
 62
7
100
AcDbLine
 10
26.370335
 20
260.096678
 30
0.0
 11
26.370334
 21
260.096679
 31
0.0
  0
SPLINE
  5
23c
100
AcDbEntity
  8
Layer_1
 62
7
100
AcDbSpline
 70
8
 71
3
 72
8
 73
4
 74
0
 40
0
 40
0
 40
0
 40
0
 40
1
 40
1
 40
1
 40
1
 10
24.259200
 20
263.693760
 30
0.0
 10
24.060905
 20
263.790560
 30
0.0
 10
23.966728
 20
263.938426
 30
0.0
 10
23.966579
 20
264.153206
 30
0.0
  0
SPLINE
  5
23d
100
AcDbEntity
  8
Layer_1
 62
7
100
AcDbSpline
 70
8
 71
3
 72
8
 73
4
 74
0
 40
0
 40
0
 40
0
 40
0
 40
1
 40
1
 40
1
 40
1
 10
23.966579
 20
264.153206
 30
0.0
 10
23.966368
 20
264.438774
 30
0.0
 10
24.177924
 20
264.657470
 30
0.0
 10
24.454351
 20
264.657470
 30
0.0
  0
SPLINE
  5
23e
100
AcDbEntity
  8
Layer_1
 62
7
100
AcDbSpline
 70
8
 71
3
 72
8
 73
4
 74
0
 40
0
 40
0
 40
0
 40
0
 40
1
 40
1
 40
1
 40
1
 10
24.454351
 20
264.657470
 30
0.0
 10
24.934531
 20
264.657470
 30
0.0
 10
25.128157
 20
264.012064
 30
0.0
 10
24.729853
 20
263.739142
 30
0.0
  0
SPLINE
  5
23f
100
AcDbEntity
  8
Layer_1
 62
7
100
AcDbSpline
 70
8
 71
3
 72
8
 73
4
 74
0
 40
0
 40
0
 40
0
 40
0
 40
1
 40
1
 40
1
 40
1
 10
24.729853
 20
263.739142
 30
0.0
 10
24.608980
 20
263.656322
 30
0.0
 10
24.380945
 20
263.634330
 30
0.0
 10
24.259200
 20
263.693762
 30
0.0
  0
LINE
  5
240
100
AcDbEntity
  8
Layer_1
 62
7
100
AcDbLine
 10
24.259200
 20
263.693762
 30
0.0
 11
24.259200
 21
263.693760
 31
0.0
  0
SPLINE
  5
241
100
AcDbEntity
  8
Layer_1
 62
7
100
AcDbSpline
 70
8
 71
3
 72
8
 73
4
 74
0
 40
0
 40
0
 40
0
 40
0
 40
1
 40
1
 40
1
 40
1
 10
24.636399
 20
263.772320
 30
0.0
 10
24.952826
 20
263.932175
 30
0.0
 10
24.975853
 20
264.311944
 30
0.0
 10
24.682299
 20
264.529449
 30
0.0
  0
SPLINE
  5
242
100
AcDbEntity
  8
Layer_1
 62
7
100
AcDbSpline
 70
8
 71
3
 72
8
 73
4
 74
0
 40
0
 40
0
 40
0
 40
0
 40
1
 40
1
 40
1
 40
1
 10
24.682299
 20
264.529449
 30
0.0
 10
24.625469
 20
264.571559
 30
0.0
 10
24.562106
 20
264.587769
 30
0.0
 10
24.454345
 20
264.587769
 30
0.0
  0
SPLINE
  5
243
100
AcDbEntity
  8
Layer_1
 62
7
100
AcDbSpline
 70
8
 71
3
 72
8
 73
4
 74
0
 40
0
 40
0
 40
0
 40
0
 40
1
 40
1
 40
1
 40
1
 10
24.454345
 20
264.587769
 30
0.0
 10
24.286559
 20
264.587769
 30
0.0
 10
24.189865
 20
264.533109
 30
0.0
 10
24.084953
 20
264.378964
 30
0.0
  0
SPLINE
  5
244
100
AcDbEntity
  8
Layer_1
 62
7
100
AcDbSpline
 70
8
 71
3
 72
8
 73
4
 74
0
 40
0
 40
0
 40
0
 40
0
 40
1
 40
1
 40
1
 40
1
 10
24.084953
 20
264.378964
 30
0.0
 10
23.999793
 20
264.253840
 30
0.0
 10
23.999893
 20
264.058110
 30
0.0
 10
24.085164
 20
263.929776
 30
0.0
  0
SPLINE
  5
245
100
AcDbEntity
  8
Layer_1
 62
7
100
AcDbSpline
 70
8
 71
3
 72
8
 73
4
 74
0
 40
0
 40
0
 40
0
 40
0
 40
1
 40
1
 40
1
 40
1
 10
24.085164
 20
263.929776
 30
0.0
 10
24.150774
 20
263.831046
 30
0.0
 10
24.354411
 20
263.709593
 30
0.0
 10
24.454332
 20
263.709593
 30
0.0
  0
SPLINE
  5
246
100
AcDbEntity
  8
Layer_1
 62
7
100
AcDbSpline
 70
8
 71
3
 72
8
 73
4
 74
0
 40
0
 40
0
 40
0
 40
0
 40
1
 40
1
 40
1
 40
1
 10
24.454332
 20
263.709593
 30
0.0
 10
24.486172
 20
263.709593
 30
0.0
 10
24.568090
 20
263.737813
 30
0.0
 10
24.636381
 20
263.772323
 30
0.0
  0
LINE
  5
247
100
AcDbEntity
  8
Layer_1
 62
7
100
AcDbLine
 10
24.636381
 20
263.772323
 30
0.0
 11
24.636399
 21
263.772320
 31
0.0
  0
LINE
  5
248
100
AcDbEntity
  8
Layer_1
 62
7
100
AcDbLine
 10
22.930195
 20
263.645416
 30
0.0
 11
22.983135
 21
263.815516
 31
0.0
  0
LINE
  5
249
100
AcDbEntity
  8
Layer_1
 62
7
100
AcDbLine
 10
22.983135
 20
263.815516
 30
0.0
 11
22.610567
 21
264.187316
 31
0.0
  0
LINE
  5
24a
100
AcDbEntity
  8
Layer_1
 62
7
100
AcDbLine
 10
22.610567
 20
264.187316
 30
0.0
 11
22.238000
 21
264.559116
 31
0.0
  0
LINE
  5
24b
100
AcDbEntity
  8
Layer_1
 62
7
100
AcDbLine
 10
22.238000
 20
264.559116
 30
0.0
 11
22.238000
 21
265.093717
 31
0.0
  0
LINE
  5
24c
100
AcDbEntity
  8
Layer_1
 62
7
100
AcDbLine
 10
22.238000
 20
265.093717
 30
0.0
 11
22.238000
 21
265.628317
 31
0.0
  0
LINE
  5
24d
100
AcDbEntity
  8
Layer_1
 62
7
100
AcDbLine
 10
22.238000
 20
265.628317
 30
0.0
 11
22.119516
 21
265.646747
 31
0.0
  0
SPLINE
  5
24e
100
AcDbEntity
  8
Layer_1
 62
7
100
AcDbSpline
 70
8
 71
3
 72
8
 73
4
 74
0
 40
0
 40
0
 40
0
 40
0
 40
1
 40
1
 40
1
 40
1
 10
22.119516
 20
265.646747
 30
0.0
 10
22.054346
 20
265.656877
 30
0.0
 10
21.979077
 20
265.671377
 30
0.0
 10
21.952244
 20
265.678957
 30
0.0
  0
SPLINE
  5
24f
100
AcDbEntity
  8
Layer_1
 62
7
100
AcDbSpline
 70
8
 71
3
 72
8
 73
4
 74
0
 40
0
 40
0
 40
0
 40
0
 40
1
 40
1
 40
1
 40
1
 10
21.952244
 20
265.678957
 30
0.0
 10
21.906804
 20
265.691787
 30
0.0
 10
21.903464
 20
265.649127
 30
0.0
 10
21.903464
 20
265.056912
 30
0.0
  0
LINE
  5
250
100
AcDbEntity
  8
Layer_1
 62
7
100
AcDbLine
 10
21.903464
 20
265.056912
 30
0.0
 11
21.903464
 21
264.421086
 31
0.0
  0
LINE
  5
251
100
AcDbEntity
  8
Layer_1
 62
7
100
AcDbLine
 10
21.903464
 20
264.421086
 30
0.0
 11
22.383060
 21
263.940902
 31
0.0
  0
SPLINE
  5
252
100
AcDbEntity
  8
Layer_1
 62
7
100
AcDbSpline
 70
8
 71
3
 72
8
 73
4
 74
0
 40
0
 40
0
 40
0
 40
0
 40
1
 40
1
 40
1
 40
1
 10
22.383060
 20
263.940902
 30
0.0
 10
22.646837
 20
263.676801
 30
0.0
 10
22.865942
 20
263.464004
 30
0.0
 10
22.869958
 20
263.468021
 30
0.0
  0
SPLINE
  5
253
100
AcDbEntity
  8
Layer_1
 62
7
100
AcDbSpline
 70
8
 71
3
 72
8
 73
4
 74
0
 40
0
 40
0
 40
0
 40
0
 40
1
 40
1
 40
1
 40
1
 10
22.869958
 20
263.468021
 30
0.0
 10
22.873958
 20
263.472021
 30
0.0
 10
22.901078
 20
263.551871
 30
0.0
 10
22.930198
 20
263.645422
 30
0.0
  0
LINE
  5
254
100
AcDbEntity
  8
Layer_1
 62
7
100
AcDbLine
 10
22.930198
 20
263.645422
 30
0.0
 11
22.930195
 21
263.645416
 31
0.0
  0
SPLINE
  5
255
100
AcDbEntity
  8
Layer_1
 62
7
100
AcDbSpline
 70
8
 71
3
 72
8
 73
4
 74
0
 40
0
 40
0
 40
0
 40
0
 40
1
 40
1
 40
1
 40
1
 10
23.235875
 20
265.784311
 30
0.0
 10
24.952775
 20
266.258168
 30
0.0
 10
25.813254
 20
268.163396
 30
0.0
 10
25.022076
 20
269.739230
 30
0.0
  0
SPLINE
  5
256
100
AcDbEntity
  8
Layer_1
 62
7
100
AcDbSpline
 70
8
 71
3
 72
8
 73
4
 74
0
 40
0
 40
0
 40
0
 40
0
 40
1
 40
1
 40
1
 40
1
 10
25.022076
 20
269.739230
 30
0.0
 10
24.870814
 20
270.040507
 30
0.0
 10
24.777626
 20
270.172980
 30
0.0
 10
24.543770
 20
270.419170
 30
0.0
  0
SPLINE
  5
257
100
AcDbEntity
  8
Layer_1
 62
7
100
AcDbSpline
 70
8
 71
3
 72
8
 73
4
 74
0
 40
0
 40
0
 40
0
 40
0
 40
1
 40
1
 40
1
 40
1
 10
24.543770
 20
270.419170
 30
0.0
 10
23.991397
 20
271.000675
 30
0.0
 10
23.306233
 20
271.294129
 30
0.0
 10
22.499893
 20
271.294556
 30
0.0
  0
SPLINE
  5
258
100
AcDbEntity
  8
Layer_1
 62
7
100
AcDbSpline
 70
8
 71
3
 72
8
 73
4
 74
0
 40
0
 40
0
 40
0
 40
0
 40
1
 40
1
 40
1
 40
1
 10
22.499893
 20
271.294556
 30
0.0
 10
21.821963
 20
271.294873
 30
0.0
 10
21.231994
 20
271.077365
 30
0.0
 10
20.680055
 20
270.623488
 30
0.0
  0
SPLINE
  5
259
100
AcDbEntity
  8
Layer_1
 62
7
100
AcDbSpline
 70
8
 71
3
 72
8
 73
4
 74
0
 40
0
 40
0
 40
0
 40
0
 40
1
 40
1
 40
1
 40
1
 10
20.680055
 20
270.623488
 30
0.0
 10
20.558856
 20
270.523828
 30
0.0
 10
20.433618
 20
270.404642
 30
0.0
 10
20.401750
 20
270.358642
 30
0.0
  0
SPLINE
  5
25a
100
AcDbEntity
  8
Layer_1
 62
7
100
AcDbSpline
 70
8
 71
3
 72
8
 73
4
 74
0
 40
0
 40
0
 40
0
 40
0
 40
1
 40
1
 40
1
 40
1
 10
20.401750
 20
270.358642
 30
0.0
 10
20.369880
 20
270.312642
 30
0.0
 10
20.315230
 20
270.243130
 30
0.0
 10
20.280305
 20
270.204171
 30
0.0
  0
SPLINE
  5
25b
100
AcDbEntity
  8
Layer_1
 62
7
100
AcDbSpline
 70
8
 71
3
 72
8
 73
4
 74
0
 40
0
 40
0
 40
0
 40
0
 40
1
 40
1
 40
1
 40
1
 10
20.280305
 20
270.204171
 30
0.0
 10
20.203625
 20
270.118631
 30
0.0
 10
20.149336
 20
270.029816
 30
0.0
 10
20.016891
 20
269.773191
 30
0.0
  0
SPLINE
  5
25c
100
AcDbEntity
  8
Layer_1
 62
7
100
AcDbSpline
 70
8
 71
3
 72
8
 73
4
 74
0
 40
0
 40
0
 40
0
 40
0
 40
1
 40
1
 40
1
 40
1
 10
20.016891
 20
269.773191
 30
0.0
 10
19.153043
 20
268.099395
 30
0.0
 10
20.152613
 20
266.085321
 30
0.0
 10
22.024286
 20
265.728408
 30
0.0
  0
SPLINE
  5
25d
100
AcDbEntity
  8
Layer_1
 62
7
100
AcDbSpline
 70
8
 71
3
 72
8
 73
4
 74
0
 40
0
 40
0
 40
0
 40
0
 40
1
 40
1
 40
1
 40
1
 10
22.024286
 20
265.728408
 30
0.0
 10
22.337536
 20
265.668678
 30
0.0
 10
22.913116
 20
265.695238
 30
0.0
 10
23.235875
 20
265.784308
 30
0.0
  0
LINE
  5
25e
100
AcDbEntity
  8
Layer_1
 62
7
100
AcDbLine
 10
23.235875
 20
265.784308
 30
0.0
 11
23.235875
 21
265.784311
 31
0.0
  0
SPLINE
  5
25f
100
AcDbEntity
  8
Layer_1
 62
7
100
AcDbSpline
 70
8
 71
3
 72
8
 73
4
 74
0
 40
0
 40
0
 40
0
 40
0
 40
1
 40
1
 40
1
 40
1
 10
21.024696
 20
269.407195
 30
0.0
 10
20.858366
 20
269.509302
 30
0.0
 10
20.779068
 20
269.668345
 30
0.0
 10
20.793691
 20
269.870511
 30
0.0
  0
SPLINE
  5
260
100
AcDbEntity
  8
Layer_1
 62
7
100
AcDbSpline
 70
8
 71
3
 72
8
 73
4
 74
0
 40
0
 40
0
 40
0
 40
0
 40
1
 40
1
 40
1
 40
1
 10
20.793691
 20
269.870511
 30
0.0
 10
20.828611
 20
270.353218
 30
0.0
 10
21.428508
 20
270.510359
 30
0.0
 10
21.703619
 20
270.108861
 30
0.0
  0
SPLINE
  5
261
100
AcDbEntity
  8
Layer_1
 62
7
100
AcDbSpline
 70
8
 71
3
 72
8
 73
4
 74
0
 40
0
 40
0
 40
0
 40
0
 40
1
 40
1
 40
1
 40
1
 10
21.703619
 20
270.108861
 30
0.0
 10
21.846505
 20
269.900332
 30
0.0
 10
21.791839
 20
269.596158
 30
0.0
 10
21.582819
 20
269.436732
 30
0.0
  0
SPLINE
  5
262
100
AcDbEntity
  8
Layer_1
 62
7
100
AcDbSpline
 70
8
 71
3
 72
8
 73
4
 74
0
 40
0
 40
0
 40
0
 40
0
 40
1
 40
1
 40
1
 40
1
 10
21.582819
 20
269.436732
 30
0.0
 10
21.433067
 20
269.322511
 30
0.0
 10
21.184107
 20
269.309335
 30
0.0
 10
21.024696
 20
269.407202
 30
0.0
  0
LINE
  5
263
100
AcDbEntity
  8
Layer_1
 62
7
100
AcDbLine
 10
21.024696
 20
269.407202
 30
0.0
 11
21.024696
 21
269.407195
 31
0.0
  0
SPLINE
  5
264
100
AcDbEntity
  8
Layer_1
 62
7
100
AcDbSpline
 70
8
 71
3
 72
8
 73
4
 74
0
 40
0
 40
0
 40
0
 40
0
 40
1
 40
1
 40
1
 40
1
 10
21.483579
 20
269.451725
 30
0.0
 10
21.775579
 20
269.600692
 30
0.0
 10
21.788702
 20
270.033368
 30
0.0
 10
21.506439
 20
270.205464
 30
0.0
  0
SPLINE
  5
265
100
AcDbEntity
  8
Layer_1
 62
7
100
AcDbSpline
 70
8
 71
3
 72
8
 73
4
 74
0
 40
0
 40
0
 40
0
 40
0
 40
1
 40
1
 40
1
 40
1
 10
21.506439
 20
270.205464
 30
0.0
 10
21.301049
 20
270.330692
 30
0.0
 10
21.007419
 20
270.248944
 30
0.0
 10
20.898957
 20
270.036343
 30
0.0
  0
SPLINE
  5
266
100
AcDbEntity
  8
Layer_1
 62
7
100
AcDbSpline
 70
8
 71
3
 72
8
 73
4
 74
0
 40
0
 40
0
 40
0
 40
0
 40
1
 40
1
 40
1
 40
1
 10
20.898957
 20
270.036343
 30
0.0
 10
20.703963
 20
269.654124
 30
0.0
 10
21.101357
 20
269.256731
 30
0.0
 10
21.483576
 20
269.451725
 30
0.0
  0
LINE
  5
267
100
AcDbEntity
  8
Layer_1
 62
7
100
AcDbLine
 10
21.483576
 20
269.451725
 30
0.0
 11
21.483579
 21
269.451725
 31
0.0
  0
LINE
  5
268
100
AcDbEntity
  8
Layer_1
 62
7
100
AcDbLine
 10
20.301012
 20
270.333290
 30
0.0
 11
20.405879
 21
270.461267
 31
0.0
  0
LINE
  5
269
100
AcDbEntity
  8
Layer_1
 62
7
100
AcDbLine
 10
20.405879
 20
270.461267
 30
0.0
 11
20.137098
 21
270.731060
 31
0.0
  0
LINE
  5
26a
100
AcDbEntity
  8
Layer_1
 62
7
100
AcDbLine
 10
20.137098
 20
270.731060
 30
0.0
 11
19.868318
 21
271.000853
 31
0.0
  0
LINE
  5
26b
100
AcDbEntity
  8
Layer_1
 62
7
100
AcDbLine
 10
19.868318
 20
271.000853
 30
0.0
 11
19.868318
 21
274.882450
 31
0.0
  0
LINE
  5
26c
100
AcDbEntity
  8
Layer_1
 62
7
100
AcDbLine
 10
19.868318
 20
274.882450
 30
0.0
 11
19.868318
 21
278.764048
 31
0.0
  0
LINE
  5
26d
100
AcDbEntity
  8
Layer_1
 62
7
100
AcDbLine
 10
19.868318
 20
278.764048
 30
0.0
 11
19.701046
 21
278.764048
 31
0.0
  0
LINE
  5
26e
100
AcDbEntity
  8
Layer_1
 62
7
100
AcDbLine
 10
19.701046
 20
278.764048
 30
0.0
 11
19.533775
 21
278.764048
 31
0.0
  0
LINE
  5
26f
100
AcDbEntity
  8
Layer_1
 62
7
100
AcDbLine
 10
19.533775
 20
278.764048
 30
0.0
 11
19.533775
 21
274.812673
 31
0.0
  0
LINE
  5
270
100
AcDbEntity
  8
Layer_1
 62
7
100
AcDbLine
 10
19.533775
 20
274.812673
 30
0.0
 11
19.533775
 21
270.861298
 31
0.0
  0
LINE
  5
271
100
AcDbEntity
  8
Layer_1
 62
7
100
AcDbLine
 10
19.533775
 20
270.861298
 30
0.0
 11
19.860913
 21
270.533305
 31
0.0
  0
SPLINE
  5
272
100
AcDbEntity
  8
Layer_1
 62
7
100
AcDbSpline
 70
8
 71
3
 72
8
 73
4
 74
0
 40
0
 40
0
 40
0
 40
0
 40
1
 40
1
 40
1
 40
1
 10
19.860913
 20
270.533305
 30
0.0
 10
20.040838
 20
270.352910
 30
0.0
 10
20.189872
 20
270.205312
 30
0.0
 10
20.192098
 20
270.205312
 30
0.0
  0
SPLINE
  5
273
100
AcDbEntity
  8
Layer_1
 62
7
100
AcDbSpline
 70
8
 71
3
 72
8
 73
4
 74
0
 40
0
 40
0
 40
0
 40
0
 40
1
 40
1
 40
1
 40
1
 10
20.192098
 20
270.205312
 30
0.0
 10
20.194298
 20
270.205312
 30
0.0
 10
20.243338
 20
270.262902
 30
0.0
 10
20.301012
 20
270.333290
 30
0.0
  0
LINE
  5
274
100
AcDbEntity
  8
Layer_1
 62
7
100
AcDbLine
 10
20.301012
 20
270.333290
 30
0.0
 11
20.301012
 21
270.333290
 31
0.0
  0
ENDSEC
  0
SECTION
  2
OBJECTS
  0
DICTIONARY
  5
C
330
0
100
AcDbDictionary
  3
ACAD_GROUP
350
D
  3
ACAD_MLINESTYLE
350
17
  0
DICTIONARY
  5
D
330
C
100
AcDbDictionary
  0
DICTIONARY
  5
1A
330
C
100
AcDbDictionary
  0
DICTIONARY
  5
17
330
C
100
AcDbDictionary
  3
STANDARD
350
18
  0
DICTIONARY
  5
19
330
C
100
AcDbDictionary
  0
ENDSEC
  0
EOF
